<?xml version="1.0" encoding="UTF-8"?>
<svg id="Layer_2" data-name="Layer 2" xmlns="http://www.w3.org/2000/svg" viewBox="0 0 365.17 17.48">
  <g id="_Слой_1" data-name="Слой 1">
    <path d="M279.64,9.36c-.31-.27-.54-.58-.16-.69.25-.07.52-.07.78-.09.61-.05.63-.04.41.65-.13.41-.06.59.39.54.21-.02.44-.11.62-.05.13.04.29.4.26.42-.48.43-.46,1.35-1.36,1.39-.1,0-.18.3-.27.45.15.02.29.03.44.05.05,0,.1-.01.16-.02.32,0,.42-.72.88-.28-.25.21-.51.42-.75.64-.06.06-.06.18-.08.27-.33-.07-.65-.14-1.16-.13,0-.08.16-.18.15-.23-.05-.16-.16-.31-.25-.46-.13.11-.33.19-.37.32-.03.1.15.26.47.37.05.29-.05.65-.05,1.08,0,.63.93.25.8.88.18,0,.37.01.54-.03.23-.07.45-.19.67-.29.32.13-.85.68.18.63.17,0,.35.08.52.12-.18.17-.49.52-.52.49-.68-.49-1.21-.04-1.79.21-.13.06-.48.25-.34-.3.24-.91.08-1.03-.76-.83-.22.05-.4.22-.6.34-.09-.17-.18-.34-.28-.51-.07.04-.15.07-.2.13-.52.63-1.13.77-1.68.38-.24-.17-.37-.38-.14-.63.23-.26.49-.5.9-.68.1.02.04-.04-.01-.09-.04.05-.08.1-.13.16.07.04.13.09.21.12.01,0,.06-.07-.07-.18-.17-.18-.18-.29-.2-.46,0-.02,0,.02,0,.07.08-.04.17-.06.23-.12.02-.02-.05-.12-.07-.19-.06.06-.11.11-.16.24-.4-.01-.8-.1-1.2-.18.05-.2.11-.39-.23-1.23-.36-.19.22.59.54.61.24.01.48-.1.72-.16-.18-.37-.36-.75-.54-1.12-.43.72-.6-.1-.9-.14-.07,0-.16.13.18.81-.17.53-.51,1.07-1.01,1.11-.56.04-.46.21-.11.48.21.16.22.94.01,1.09-.1.07-.33.07-.41,0-.18-.17-.16-.87-.59-.17-.06-.08-.19-.16-.18-.22.04-.29.08-.59.19-.85.11-.26.49-.44.16-.79-.17.16-.32.37-.52.47-.15.07-.46-.08-.54.01-.35.42-.34.09-.43-.16-.02-.05-.24-.1-.28-.06-.18.19-.35.39-.5.61-.27.41-.54.39-.88.07-.11-.11-.31-.13-.46-.2-.01,1.11-.66.24-1.01.34-.11.03-.24.19-.25.3-.05.89.09,1.02,1.15,1.2.11.02.19.18.28.28-.09.14-.17.3-.28.43-.08.1-.27.27-.28.26-.71-.56-1.77.3-2.38-.6-.07.07-.22.15-.21.21.03.38-.2.45-.47.36-.09-.03-.13-.33-.1-.5.03-.15.35-.3-.05-.39-.1-.02-.2.02-.31.03-1.02.05.16-.49-.21-.64.13-.02.24,0,.35-.01.27-.03.49-.57.83-.1.03.04.26,0,.28-.04.14-.36.43-.81.31-1.07-.2-.46-.34.34-.64.17-.04-.02-.11,0-.14-.03-.25-.21-.54-.42-.75-.03-.16.28-.18.64-.25,1.11-.26.19-.87-.24-.87.52,0,.4-.37.24-.59.31-.22.07-.54-.08-.61.3-.02.14-.08.27-.12.41-.07-.13-.11-.28-.21-.38-.09-.09-.23-.19-.35-.19-1.01.01-1.01.02-1.4-.96.05-.04.12.04.19.12.05-.08.15-.17.13-.23-.02-.13-.1-.25-.16-.37-.06.1-.12.21-.16.49-.14.2-.37.21-.51.32-.17.14-.27.33-.38-.03-.05-.16-.03-.48-.31-.18-.13.14-.52.32-.06.56.09.05.19.11.24.2.06.09.12.28.08.31-.18.16-.39.28-.61.4-.02,0-.14-.13-.18-.22-.19-.5-.27-1.1-.59-1.49-.32-.39-.28-.59-.01-.91.05-.06-.08-.26-.13-.4-.1.09-.24.15-.3.26-.33.54-.39,1.2-1.16,1.47-1.24.44-1.22.51-2.75-.36.1-.09.19-.18.29-.27-.12-.12-.24-.24-.36-.36-.21-.59-.66-.13-1.19-.44-.12-.07-.03.09.06.25.04-.11.13-.22.11-.31-.05-.21-.16-.4-.24-.6-.04.13-.08.27.07.67.32.72-.78.57-.33,1.28.1.15.21.63-.18.6-.41-.03-.6.51-1.03.26-.21-.12-.51-.12-.67-.28-.45-.46-.6-.28-.68.24,0,.02-.35,0-.52-.05-.03,0,0-.21-.04-.3-.12-.23.16-.76-.29-.67-.35.07-.28.43-.05.79.19.31-.28.76-.7.79-.13,0-2.18-.57-2.45-.69.25-.13.5-.33.77-.39.29-.06.53-.13.4-.46-.04-.11-.31-.15-.49-.18-.15-.02-.31.03-.46.04-.12-.09-.23-.19-.49-.23-.04-.05.04-.12.12-.19-.08-.05-.17-.15-.23-.13-.13.02-.25.11-.37.16.1.06.21.13.49.17.26.05.37.14.49.23-.07.33-.14.65-.21.98-.66.06-1.29.08-1.97-.04-.47-.09-1.06-.3-1.64.09-.47.31-1.08.05-1.62-.11-.51-.16-1.57-.08-2.2.17-.14.06-.3.15-.43.11-1.11-.28-2.32.18-3.38-.45-.6-.35-1.24-.31-1.92-.26-.59.04-1.17.34-1.82-.06-.29-.17-.91.06-1.31.25-.59.29-1,.54-1.49-.23-.18-.28-.88-.38-1.42-.26-.37.08-.79-.56-1.17.14-.28.51-.81-.51-1.18.07-1.06-.43-2.3.37-3.33-.48-.17-.14-.61.02-.92.07-.28.04-.48.05-.56-.33-.07-.32-.3-.28-.28.03.02.54-.37.43-.63.44-.18,0-.35-.17-.54-.24-.82-.33-1.62-.95-2.52-.1-.05.05-.51-.4-.88.03-.12.13-.64.02-.92-.11-.71-.31-1.31-.32-1.99.17-.39.28-.97.28-1.42-.18-.34-.35-.72-.78-1.28-.13-.13.15-.78-.22-1.12-.12-.31.09-.56.41-.95.39-.21,0-.48.14-.62.05-1.33-.87-2.72-.19-4.08-.18-.45,0-.86.15-1.37-.01-.39-.13-.96.29-1.44.49-.39.15-.84.65-1-.22-.48,0-.95-.78-1.43,0-.46-.16-.91-.38-1.39-.47-.49-.09-1.04-.62-1.51.1-.04.06-.35-.09-.54-.08-.39.01-.86-.06-1.15.13-.32.21-.5.33-.78.04-.27-.28-.59-.41-.98-.3-.94.27-2.01-.11-2.86.58-.57-.54-1.37.68-1.94-.27-.12-.2-.63-.22-.97-.24-.91-.06-1.83-.17-2.72-.07-.9.11-1.82,0-2.73.49-.51.28-1.39.08-2.02-.14-.66-.22-1.29.2-1.82-.03-.57-.25-1.15-.29-1.72-.38-.79-.12-1.71-.3-2.4-.03-1.5.59-3.06.55-4.59.75-.74.1-1.51-.06-2.27-.03-.3,0-.6.27-.9.26-.27,0-.61-.39-.8-.31-1.01.4-1.95-.28-2.95-.12-.63.1-1.31.46-1.97-.05-.1-.08-.5.35-.76.36-.81.02-1.63.51-2.43-.03-.48.29-.98-.23-1.51.11-.44.29-1.14.24-1.51.58-.57.52-.95.43-1.47,0-.57-.48-1.34-.41-2-.42-1.21-.02-2.47-.73-3.65.2-.17.14-.51.08-.78.1-.71.07-1.41.14-2.05.53-.33.2-.75.52-1.1-.04-.36-.57-.56.42-1.01.1-.34-.24-1.31-.02-1.89.06-.8.11-1.59.24-2.41-.09-.84-.34-1.74-.43-2.66-.31-.63.08-1.26.2-1.89.19-.53,0-1.09-.09-1.59-.27-.27-.1-.3.05-.46.1-.33.12-.72.21-1.04.14-.98-.2-1.92-.42-2.66.54-.03.05-.22,0-.33-.04-.42-.14-.83-.29-1.25-.42-.1-.03-.26-.04-.33.02-.16.14-.38.47-.39.46-.53-.38-1.2.09-1.61-.14-.55-.3-1.01-.11-1.51-.1-.4,0-.78.1-1.19-.16-.17-.1-.58.28-.9.32-.28.03-.57-.15-.86-.15-.36,0-.85-.01-1.04.2-.29.31-.66-.14-.95.29-.16.23-.82.06-1.29-.08-.38-.11-.74-.26-1.11-.38-.46-.15-1.01-.06-1.52-.02-.21.02-.42.3-.6.27-.94-.18-1.87-.4-2.83-.23-.79-.77-1.22-.4-1.52.46-.02.05-.23.09-.28.05-.11-.08-.23-.22-.23-.34-.04-.58-.05-.62-.4-.54-.3.07-.75.35-.87.24-.56-.51-.76.58-1.2.23-.4-.32-.73-.22-1.1.06-.08.06-.33-.05-.45-.15-.37-.3-.7-.37-1.11-.05-.18.15-.45.2-.69.26-.25.07-.51.09-.76.14.08.14.16.28.23.43-.13.06-.26.14-.4.18-.43.12-.85.11-1.29.4-.49.32-1.25.03-1.76-.35-.4-.3-.73-.6-1.26-.53-.52.07-1.05.13-1.58.17-.55.05-1.12.26-1.65-.12-.04-.03-.27.11-.32.21-.2.44-.29.56-.44.5-.09-.04-.18-.11-.25-.19-.27-.31-.54-.38-.81,0-.55-.35-.8.89-1.34.27-.37-.42-.93-.18-1.24-.44-.75-.61-1.63-.41-2.45-.53-.35-.05-.78-.42-1.19.06-.09.1-.68-.28-1.06-.38-.35-.09-.56-.24-.76-.57-.07-.13-.58-.04-.88,0-.3.05-.66.31-.88.21-.41-.19-.52.09-.77.24-.39.22-.77.08-1.12-.25-.29-.27-.64-.85-1.12-.16-.01.02-.15-.04-.22-.08-.21-.12-1.22-.3-1.63-.29-.02-.16-.03-.31-.05-.47-.11.02-.22.06-.33.05-.21-.02-.41-.09-.62-.1-.25,0-.8-.58-.63.33.05.27-.79.63-1.06.45-.04-.03.07-.29.11-.45.07-.23.29-.54.21-.67-.17-.27-.39-.07-.63.07-.29.17-.75.09-1,.29-.28.23-.42.32-.72.07-.05-.04-.31.19-.49.27-.13.06-.28.06-.42.09.05-.16.11-.31.14-.47.02-.1-.02-.21-.03-.31-.11.02-.24.01-.33.07-.36.26-.45.99-1,.83-.34-.1-.81-.17-1.01-.72-.19-.53-.81-.3-1.26-.24-.07,0-.12.12-.19.19.09.04.18.09.27.11.18.02.47-.05.24.28-.41.58-1.2.63-1.74.1-.25-.25-.3-.17-.31.11-.03.5-.33.51-.59.25-.49-.47-1.08-.59-1.53-.2-.64.54-1.01.2-1.47-.16-.45-.36-.76-.33-.83.17-.09.59-.21.58-.67.36-.48-.23-.59-.14-1.31.22-.26.14-.6.13-.9.19-.4.09-.79.18-1.19.27-.11.02-.22.04-.33.05-.02-.16-.03-.31.18-.68.07-.12-.09-.03-.25.06.11.04.22.13.31.11.21-.05.4-.16.6-.24-.13-.04-.27-.08-.67.07-.33.22-.44.23-.65.41.07-.37.16-.61.22-.85.02-.08-.07-.18-.11-.27-.13.06-.36.12-.36.18,0,.27.07.54.26.94.04-.03,0,.13-.08.24-.09.12-.2.45-.39.09-.11-.22-.16-.47-.23-.71-.35.23-.72.44-1.04.7-.09.07.09.46-.27.25-.18-.1-.34-.25-.5-.39-.23-.2-.38-.4-.7-.01-.23.27-.83-.07-1.12.37-.02.04-.19.05-.21.02-.43-.59-1.02-.38-1.58-.36-.15,0-.38-.12-.43-.25-.1-.23-.25-.42-.34-.11-.25.85-1.11.39-1.59.81-.41.36-1.01.37-1.59.12-.17-.08-.49.24-.73.22-.28-.02-.53-.25-.82-.32-.12-.03-.29.1-.42.18-.17.1-.18.54-.55.19-.69-.65-1.47-.38-2.14-.02-.64.34-1.14.35-1.66-.16-.4-.39-.84-.63-1.32-.1-1.07-.3-2.1.1-3.16.13-.09,0-.24-.04-.27-.1-.24-.56-.78-.05-1.04-.27-.43-.38-.74.56-1.12.03-.46.69-.68.27-.9-.19-.22.15-.39.14-.68.09-.65-.1-1.36.07-2.03.17-.12.02-.21.26-.3.4-.05.08-.09.18-.13.27-.06-.07-.18-.15-.18-.22.06-.84-.7-.86-1.11-.87-.81-.02-1.6-.38-2.43-.11-.51.17-.42-.29-.48-.65,0-.02,0,.02,0,.07.08-.04.17-.06.23-.12.02-.02-.05-.12-.07-.19-.06.06-.11.11-.16.24-.96.08-1.91.5-2.91.11-.12-.05-.59.15-.89.23-.19.05-.44.25-.54.19-.84-.5-1.39-.01-2.01.44-.15.11-.66-.16-.74-.06-.41.55-.94-.31-1.33.16-.06.07-1.11,0-1.32-.05-.61-.14-1.23-.15-1.89,0-.46.11-.83-.03-1.06-.42-.12-.2,0-.57-.41-.17-.64.62-1.42.3-2.15.19-.53-.08-1.02-.34-1.6,0-.37.21-1.34-.27-1.75-.65-.52-.49-1.14-.85-1.54-1.49-.23-.37-.13-.52.05-.8.12-.17-.12-.77.43-.29.15-.22.4-.43.45-.67.11-.6-.3-1.04-.63-1.48-.18-.24-.52-.53-.46.16,0,.02-.21.11-.28.07-.23-.11-.45-.25-.64-.41-.51-.41-1.1-.65-1.69-.92-.51-.23-1.17-.63-.65-1.45.03-.05-.14-.2-.15-.31-.03-.18-.07-.48,0-.52.26-.14.49-.08.53.3,0,.04.18.07.28.1-.09-.68.43-.57.81-.6.38-.03.63-.23.93-.44.89-.62,1.46-1.67,2.63-1.92.17-.04.26-.41.38-.63.04-.08.06-.27.08-.27.71-.02,1.18-.48,1.71-.87.47-.34,1.02-.57,1.55-.82.35-.17.72-.37,1.1-.42.33-.05.71.32,1-.13,1.44.29,2.94.32,4.35.8.28.09.73.3.82.2.4-.45.9.05,1.29-.22.2-.13.56-.34.66-.27.59.47,1.01-.09,1.49-.19.49-.1.97-.05,1.47-.38.36-.24,1.05-.02,1.58.06,1.22.18,2.43.39,3.64.59.13.02.33.19.35.17.43-.59.89-.13,1.36-.11.7.03,1.4-.15,2.12.09.55.19,1.16.23,1.75.27,1.23.1,2.46.15,3.61.73.28.14.72-.05,1.09-.09.74-.08,1.47-.16,2.21-.24.56.66,1.45-.24,2.02.41.02.02.1-.01.15-.01,1.7-.08,3.41-.17,5.11-.24.7-.03,1.38-.32,2.13.04.32.15.9-.11,1.3-.29.57-.26,1.06-.34,1.55.12.1.1.35.2.39.17.68-.71,1.23-.03,1.87.06.8.11,1.77.13,2.51-.52.38-.33.76-.48,1.02.15.05.12.15.21.22.32.03-.14.08-.29.08-.43-.02-.35-.14-.52.42-.31,1.18.44,2.44.14,3.66,0,.39-.05.56.02.81.41.31.48.16.44-.21.49-.14.02-.27.11-.41.16.1.1.19.24.31.3.7.33,1.05.12,1.18-.79.05-.32.07-.51.41-.48.4.03.78-.22,1.22.03.18.11.58-.2.89-.26.19-.04.43-.03.58.06.48.28.93.36,1.43.03.12-.08.32-.09.47-.05.63.14,1.27.52,1.79-.2.65.48,1.24.3,1.84-.11.07-.05.38.11.45.24.12.21.17.48.19.73.04.43.21.55.6.32.21-.12.47-.18.66-.33.35-.27.62-.4.98.02.22.26.5.32.65-.18.07-.23.37-.39.57-.57.3-.28.26.03.33.18.04.09.11.16.17.24.57-.79,1.29-.22,1.94-.2.64.02,1.3-.35,1.93.07.52-.7.96-.29,1.45.07.27.2,1.36.16,1.58-.05.38-.37.68-.42,1.18-.15.41.21.97.12,1.46.2.24.04.64.26.67.22.39-.65.93.26,1.33-.15.28-.29.63-.5.9-.79.25-.28.42-.38.78-.14.18.12.64.14.71.04.25-.38.47-.08.71-.09.6-.02,1.05.31,1.57.41.47.09,1.02-.28,1.55-.39.37-.08.85-.26.94.41,0,.04.27.07.42.07.45,0,.89-.21,1.34.15.24.19.54-.56,1.01-.12.14.13.68-.09.98-.26.46-.26.83-.66,1.36-.07.11.13.49,0,.74.04.17.03.39.1.47.23.51.81,1.15,1.2,2,1.08.75-.1,1.55.02,2.22-.53.18-.15.63-.11.89,0,.23.1.27.06.47-.07.97-.65,2-.72,3.18-.57.74.09,1.66.69,2.4-.14.05-.06.22-.07.31-.03.41.15.98.56,1.18.42.45-.31.74-.46,1.24-.12.15.1.49-.01.72-.08.23-.07.43-.25.66-.31.77-.2,1.5-.08,2.17.38.58-.81,1.28-.26,1.94-.15.19.03.38.22.55.19.37-.06.78-.39,1.06-.29.45.16.73.15,1.11-.12.15-.11.51.07.77.14.13.04.24.13.36.19.46-.95,1.35-.15,1.97-.48.09-.05.2-.07.25-.14.15-.18.27-.33.38.03.07.22.18.44.28.65.37-.19.64.57,1.11.06.16-.17.75-.11,1.04.04.96.51,1.8.11,2.56-.35.35-.21.49-.42.9-.12.54.41,1.13.85,1.84.2.1-.09.4-.02.58.04.8.25,1.52.65,2.43.63.44,0,.92.53,1.51.52.13,0,.31.2.4.15,1.47-.7,3.35-.39,4.51-1.84.07-.09.27-.19.31-.16.64.57,1-.23,1.5-.3.09-1.01,1.08-.07,1.4-.63.01-.03.34.05.44.15.44.46.93.62,1.56.46.28-.07.66-.07.88.07.57.35.98-.55,1.63-.08.38.28,1.07.2,1.61.16.44-.04.97.14,1.3-.36.43.24.72.09,1.14-.17.58-.35,1.25.18,1.91.16.12.73.65.43,1.07.44.24,0,.48.09.72.14,1.28.27,2.58.28,3.88.29.46,0,.93-.35,1.39-.35.42,0,.83.26,1.25.39.09.03.27.02.3-.03.49-.8.96,0,1.44,0,.18,0,.51.09.53.04.48-1.16,1.06.09,1.57-.08.46.6,1.07.51,1.71.44.65-.07,1.32-.32,1.95.1.78-.39,1.66-.42,2.46-.71.45-.17.76-.52,1.38-.4.51.1,1.1,0,1.63.19.25.09.5.4.69-.07.75-.02,1.44-.3,2.24.24.54.36,1.46.16,2.2.22.3.02.6.09.9.05,1.27-.15,2.45.38,3.7.45.71.04,1.29-.06,1.96-.22.71-.17,1.49-.46,2.28,0,.22.12.69-.1,1-.25.79-.39,1.03-.56,1.82-.2.55.25,1.18-.29,1.61.3,0,.01.3-.22.48-.3.58-.26,1.17-.52,1.76-.75.09-.04.24-.01.34.03.32.14.65.26.93.47.35.26.52.09.77-.16.58-.57.59-.54,1.33.08.18.15.44.23.68.26.35.04.71,0,1.07,0-.01.51.58.36.69.59.19.39.24.62.73.29.3-.2.76-.25,1.14-.23.24,0,.67.39.69.36.43-.54,1.17-.05,1.58-.49.38-.4.98-.43,1.3-.3.61.25.92.14,1.26-.35.08-.11.36-.16.51-.12.67.18,1.33.34,2.04.35.67.01,1.25.55,2.02.42.31-.05.41.79,1.04.5.48-.22.71.32,1.07.49.89.43,1.09.35,1.7-.62.04-.07.12-.11.19-.16.05.09.13.17.13.26,0,.45.12.67.65.58.54-.1,1.11-.25,1.64.12.07.05.2-.03.31-.03.55,0,.96-.61,1.65-.22.43.25,1.1.04,1.61.2.88.26,1.73.13,2.59,0,.54-.08.63.15.64.59,0,.07.16.14.24.22.32-.63.69-.02,1.04-.05.37-.03.74-.09,1.1-.11.14-.01.35-.02.43.06.74.72,1.5.36,2.3.15.47-.12,1.01,0,1.52.05.02,0,0,.34.01.52,0,.11,0,.22.01.34.16-.02.32-.03.47-.05.09.1.25.29.27.27.6-.39,1.01-.37,1.08.45.03.37.23.38.53.35.45-.04.86-.04,1.34.1.42.13,1.01-.28,1.52-.47.14-.05.15-.38.44-.16.25.19.49.7.89.28.39-.42.68.24,1.07,0,.28-.17.72.03.98-.35.09-.12.37-.15.57-.15.69-.01,1.4-.39,2.08.04.57-.64,1.38-.29,2.06-.5.36-.11.61-.01.61.42.11-.03.22-.06.33-.08.77-.19,1.45-.71,2.29-.69.44.01,1.06-.45,1.23.4.64.07,1.29.24,1.92.18,1.02-.1,1.12-.14,2.27.28.27.1.6.05.9.03.47-.04.94-.17,1.29.3.05.06.22.05.33.03.39-.09.78-.2,1.17-.3.3-.08.83.1.68-.54.2.03.4.07.6.08.2.02.48-.07.59.03.32.31.38-.03.57-.13.1-.05.44.08.47.18.11.37.17.4.45.1.31-.33.55.03.78.21.04.03.04.18,0,.21-.14.11-.3.19-.46.28.19.05.38.1.56.17.09.04.18.11.25.2.14.19.27.39.4.58.03-.04.06-.1.1-.12.51-.32-.01-.56-.06-.83-.11-.66.2-1,.9-.82.28.07.35-.47.71-.1.17.17.69-.02,1.04,0,.29.02.58.14.87.13.14,0,.33-.19.4-.35.29-.61.56.22.91.01.13-.08.22.33.07.6-.17.29-.33.63-.36.95-.05.52-.23.31-.42.13-.1-.1-.2-.23-.25-.36-.23-.57-.32-.02-.46.05-.43.22.27.87-.42.71-.04-.35-.03-.41-.05-.45-.07-.16-.15-.31-.23-.46-.02.19-.06.38-.07.57,0,.15.01.31.05.45.02.08.12.14.18.22.05-.06.13-.11.13-.17,0-.15-.03-.3,0-.15.47.59.51.61.65.24.08-.2.03-.4.31-.2.37.26.46.87,1.05.85-.08.27-.15.55-.28,1.21.02.13.07.02.08-.1.01-.1-.02-.2-.03-.29-.1.08-.25.16-.28.26-.02.11.07.25.22.13.49-.65.97-.11,1.41-.44,0,0,.24.2.26.32.06.48.04,1,.79.75.07-.02.18.07.27.11-.07.06-.13.15-.21.19-.32.17-.87-.2-1.78.96-.44-.03.26.33.74.06.06-.03.11-.2.08-.27-.14-.28-.3-.55-.48-.81,0,0-.24.09-.3.18-.09.17-.09.39-.19.55-.2.31-.24.1-.34-.1-.06-.13-.39-.28-.42-.25-.27.27-.57.43-.95.41,0,.11-.04.28,0,.3.35.17.71.31,1.86-.06.95-.55,1.1-.58,1.26-.58.15,0,.29.03.44.05-.06.12-.13.23-.18.36-.27.64-.97.71-1.46.94-.58.27-.24.58-.28.87,0,.03.29.16.38.11.31-.17.25-.61.68-.82.3-.14.73.27.9-.28.15-.51.67-.39,1.06-.45.16.66.92-.09,1.13.47.04-.16.17-.42.12-.46-.67-.53-.01-.61.26-.82.07.22-.06.48.31.62.68.26.64.3.34.92-.07.15-.09.48-.01.52.34.19.98-.2,1.02.56.07-.04.21-.1.2-.11-.13-.48.2-.47.52-.55.42-.11.47-.36.19-.61-.23-.21-.49-.39-.74-.58-.59.77-.47,0-.48-.25,0-.23.14-.46.22-.69.21-.02.42-.05.96-.03.19,0,.08-.07-.03-.06-.1.01-.27.14-.26.16.05.15.14.29.22.44.12-.15.25-.31.08-.55ZM44.83,6.22c-.06-.06-.11-.11-.17-.17-.04.05-.08.1-.13.16.07.04.13.09.21.12.01,0,.06-.07-.36-.24.05,0,.09-.01.14-.02-.04-.08-.06-.17-.12-.23-.02-.02-.12.05-.19.07.06.06.11.11.62.31ZM256.17,8.03c.12.09.23.19,1.26.81-.41-.24-.66-.38-.91-.53-.08.23-.24.46-.23.69.02.42.38.25.6.22.15-.03.27-.18-.37-.9-.12-.09-.23-.19-.49-.27.05,0,.09-.01.14-.02-.04-.08-.06-.17-.12-.23-.02-.02-.12.05-.19.07.06.06.11.11.31.16ZM65.83,4.02c.06-.06.11-.11.17-.17-.05-.04-.1-.08-.16-.13-.04.07-.09.13-.12.21,0,.01.07.06.24-.36,0,.05.01.09.02.14.08-.04.17-.06.23-.12.02-.02-.05-.12-.07-.19-.06.06-.11.11-.31.62ZM260.19,12.89c-.06-.06-.11-.11-.17-.17-.04.05-.08.1-.13.16.07.04.13.09.21.12.01,0,.06-.07-.36-.24.05,0,.09-.01.14-.02-.04-.08-.06-.17-.12-.23-.02-.02-.12.05-.19.07.06.06.11.11.62.31ZM250.45,11.22c.12.09.23.19,1.73.28-.25-.04-.43-.11-.6-.08-.26.04-.61.08-.75.25-.18.23.21.87.54,1,.09.03.27.04.29,0,.17-.34.31-.7-.87-1.17-.12-.09-.23-.19-.49-.27.05,0,.09-.01.14-.02-.04-.08-.06-.17-.12-.23-.02-.02-.12.05-.19.07.06.06.11.11.31.16ZM268.25,7.52s.01.09.02.14c.08-.04.17-.06.23-.12.02-.02-.05-.12-.07-.19-.06.06-.11.11-.26,1.09.07-.26.12-.37.14-.49.01-.1-.02-.2-.03-.29-.1.08-.25.16-.28.26-.02.11.07.25.26-.4ZM57.49,13.33c.1-.09.18-.17.26-.24-.08-.05-.17-.15-.23-.13-.13.02-.25.11-.37.16.1.06.21.13.93.27-.06-.06-.11-.11-.17-.17-.04.05-.08.1-.13.16.07.04.13.09.21.12.01,0,.06-.07-.5-.17ZM61.21,6.53c.1-.09.18-.17.26-.24-.08-.05-.17-.15-.23-.13-.13.02-.25.1-.37.16.1.06.21.12.62.12.12.09.23.19.72.57-.07-.09-.15-.2-.23-.3-.04.05-.14.13-.12.16.06.15.15.29.23.44.03-.08.07-.17-.25-.58-.12-.09-.23-.19-.63-.19ZM57.17,9.6c.07-.26.12-.37.14-.49.01-.1-.02-.2-.03-.29-.1.08-.25.16-.28.26-.02.11.07.25.13-.45.19.07.32.16.44.15.1,0,.19-.13.29-.21-.15-.12-.31-.25-.46-.37-.06.1-.13.2-.23,1.4ZM63.45,11.09c.17-.11.3-.19.43-.28-.13-.04-.27-.13-.39-.11-.18.02-.35.12-.53.18.15.07.31.13.94.08.04.08.09.17.13.25.06-.1.12-.19.17-.41.04.03.14.12.16.1.25-.16.49-.33.71-.53.05-.04.03-.21,0-.29-.04-.08-.14-.18-.22-.18-.38,0-.76.51-.64,1.02-.11.01-.21.02-.77.16ZM63.51,9.07c.06-.06.11-.11.17-.17-.05-.04-.1-.08-.16-.13-.04.07-.09.13-.12.21,0,.01.07.06.47-.24.2-.02.32,0,.41-.05.1-.05.16-.16.24-.24-.16-.11-.36-.34-.48-.31-.17.05-.27.3-.4.46.1.06.2.12-.13.47ZM264.39,13.65c0-.21.02-.32.02-.43-.03-.39-.31-.31-.54-.27-.13.02-.26.1-.39.16.15.05.32.08.46.16.13.07.23.19,1.5.32-.15-.06-.27-.14-.36-.12-.21.04-.41.14-.61.22.16.13.32.35.49.37.12.01.27-.25-.56-.39ZM71.08,9.4s.01.09.02.14c.08-.04.17-.06.23-.12.02-.02-.05-.12-.07-.19-.06.06-.11.11-.67,1.41.18-.27.38-.52.54-.8.04-.07-.01-.2-.03-.31-.18.17-.37.33-.55.51-.11.11-.2.24-.3.36.07.05.14.1.83-1.01ZM261.59,10.81s.01.09.02.14c.08-.04.17-.06.23-.12.02-.02-.05-.12-.07-.19-.06.06-.11.11-.76.99.54.02.73-.13.61-.53-.02-.06-.11-.13-.16-.13-.28,0-.8.46-.69.58.08.09.26.08.83-.74ZM59.12,2.9c.09.1.17.18.24.26.05-.08.15-.17.13-.23-.02-.13-.1-.25-.16-.37-.06.1-.13.21-.16,1.88.05-.07.16-.14.15-.2-.01-.3-.03-.61-.11-.9-.02-.07-.3-.12-.44-.09-.07.02-.17.28-.13.36.15.29.35.55.48-.71ZM256.93,13.15c.18.12.24.19.3.19.14-.02.27-.08.4-.12-.03-.07-.06-.19-.08-.19-.17.02-.34.06-.5.87,0-.03.05-.13.06-.22,0-.1-.02-.21-.03-.31-.32.09-.6.03-.83-.22-.1.12-.21.24-.29.37-.04.06-.03.21-.02.21.37.06.74.11.99-.58ZM70.03,7.39c.06-.06.11-.11.17-.17-.05-.04-.1-.08-.16-.13-.04.07-.09.13-.12.21,0,.01.07.06.16-.64.08.12.15.36.26.38.35.08.82-.44.69-.8-.18-.51-.31.29-.63.04-.47-.36-.2.18-.37,1.1ZM269.74,9.15c.14-.15.31-.31.45-.49.03-.04-.06-.24-.07-.23-.24.04-.48.07-.7.16-.06.02-.05.27-.02.4.01.06.16.08.72-.81.18.12.24.2.31.2.44,0,.61-.32.72-.67.02-.07-.04-.21-.11-.26-.07-.05-.24-.09-.28-.05-.22.24-.42.5-1.02,1.75ZM76.94,13.54c.07.04.14.13.18.11.26-.08.52-.17.77-.29.02-.01-.02-.19-.05-.28-.01-.04-.1-.1-.11-.09-.26.17-.52.35-.77.68-.23-.19-.47-.37-.79-.84.09.1.17.18.24.26.05-.08.15-.17.13-.23-.02-.13-.1-.25-.16-.37-.06.1-.12.21-.12.62-.17-.08-.35-.16-.52-.24,0,.18-.04.37,0,.54.05.18.15.41.29.49.35.2.74.36.89-.37ZM69.03,5.29c.23-.07.62.09.6-.38.22-.07.46.04.62-.3.5-1.08.53-1.07,1.23-.26.06.07.07.25.12.25.24.01.49-.01.74-.02-.04-.09-.08-.27-.12-.27-1.02.04.16-.5-.19-.77,0,.05.01.09.02.14.08-.04.17-.06.23-.12.02-.02-.05-.12-.07-.19-.06.06-.11.11-.16.31-.38-.43-1.26.14-1.43-.71-.07.02-.14.05-.22.07-.39.1-.78.18-1.15.32-.22.08-.41.27-.58.43-.03.03.06.23.15.3.11.1.39.38.38,0,0-1.03.51.14.64-.18-.07.33-.14.65-.21.98-.23.07-.62-.09-1.9,1.17.57-.06,1.02-.03,1.22-.5.04-.09.05-.19.08-.28-.1.01-.22,0-.31.04-.42.21-.79.73-1.34.24,0,0-.18.13-.2.22-.02.07.05.24.11.25.19.04.4.03,1.74-.75ZM56.02,6.04c-.05-.08-.09-.19-.17-.23-.08-.04-.24-.04-.29,0-.19.18-.34.38-.51.58-.08.1-.16.19-.24.29.23.09.45.19.68.25.09.02.27-.01.29-.07.1-.27.16-.55-1.12-.32.05,0,.09-.01.14-.02-.04-.08-.06-.17-.12-.23-.02-.02-.12.05-.19.07.06.06.11.11,1.53-.34ZM54.61,3.33c-.35.14-.92-.02-.72.44.15.36.66.56,1.01.83.07-.33.19-.67.18-1,0-.11-.35-.21.64,1.23-.24-.12-.37-.23-.52-.25-.08-.01-.26.1-.27.17-.02.26.04.52.4.43.11-.03.19-.16-.71-1.86ZM252.76,8.91s.01.09.02.14c.08-.04.17-.06.23-.12.02-.02-.05-.12-.07-.19-.06.06-.11.11-1.14,1.95.38-.31.77-.55,1.04-.88.11-.15.05-.67-.08-.72-.34-.16-.75-.16-1.13-.21-.01,0-.08.2-.06.21.58.42.24.88.08,1.34-.02.07.06.18.11.26.01.02.07.02,1-1.77ZM58.23,5.84c-.05,0-.12,0-.15.02-.47.4.49.77.02,1.17.47.41.53-.3.87-.33.21-.02.4-.24.91-.21-.06-.06-.11-.11-.17-.17-.04.05-.08.1-.13.16.07.04.13.09.21.12.01,0,.06-.07-.22-.26-.2-.33-.51-.62-.44-1.07.04-.3-.08-.51-.44-.43-.29.07-.57.16-.85.24.13.2.26.4.38.61.02.04.01.1.02.15ZM277.51,13.33c.03.11.05.52.18.56.51.14,1.05.17,1.58.23.07,0,.15-.11.23-.17-.08-.05-.17-.14-.25-.13-.36.06-.45-.13-.45-.43,0-.43-.31-.61-.65-.73-.35-.12-.67.16-.64.67ZM62.9,13.72c.13-.15.28-.25.3-.36.04-.32-.26-.77.4-.8.04,0,.1-.47.06-.7-.02-.09-.42-.21-.46-.16-.14.17-.2.41-.28.62-.2-.21-.36-.29-.57.02-.11.17-.55.03-.48.44.07.42.38.25.61.24.4-.02.46.1.19.4-.01.01.13.16.24.29ZM71.98,7.53c.47-.08,1.13-.74,1.17-1.12.02-.13-.1-.35-.21-.41-.15-.08-.36-.05-.54-.07,0,.45-.38.6-.62.88-.09.11.13.48.2.72ZM262.99,9.87c.16-.08.25-.12.33-.16-.09-.06-.18-.15-.28-.19-.32-.12-.64-.24-.96-.34-.1-.03-.22-.02-.34-.02.09.85-.62.43-.96.61-.09.05-.16.11-.24.17.07.07.13.17.22.19.22.07.57.21.64.13.47-.56,1.04-.54,1.58-.38ZM76.02,4.21s-.31.08-.36.22c-.12.32.53.57.13.97.09.03.24.11.27.07.3-.33.58-.68.84-1.04.02-.02-.15-.25-.26-.28-.14-.04-.31.02-.62.06ZM265.38,6.36s.04-.14.07-.24c-.37-.05-.12-.76-.7-.64-.47.09-.78.28-.77.78,0,.19.12.37.19.55.1-.11.24-.21.29-.34.23-.61.57.02.92-.12ZM266.76,8.45c.03.26.05.52.1.78,0,.05.16.12.21.1.21-.12.41-.26.61-.39-.1-.14-.17-.31-.3-.41-.41-.31-.34-.43.14-.49.05,0,.11-.26.11-.4,0-.07-.12-.13-.18-.2-.16.39-.41.25-.66.1-.02.14-.06.29-.06.43,0,.16.03.31.05.47ZM228.76,4.35c.27-.05.52-.02.67-.13.29-.23.52-.53.35-.95-.04-.09-.09-.17-.14-.26-.17.18-.32.37-.51.52-.15.12-.37.16-.5.3-.12.12-.17.31-.26.47.15.02.3.04.39.06ZM264.58,9.67c.25.18.49.43.78.52.16.05.4-.17.6-.27-.18-.22-.33-.5-.57-.65-.13-.09-.4,0-.6.06-.07.02-.1.15-.22.34ZM265.22,10.55c-.1.01-.21,0-.31.04-.14.04-.27.11-.41.16.16.06.38.07.47.18.1.12.1.34.11.52,0,.11-.04.23-.07.35.1,0,.27.05.29,0,.24-.41.46-.83.68-1.24-.15-.02-.29-.05-.44-.05-.1,0-.21.02-.32.03ZM266.96,11.63s.1-.09.09-.12c-.14-.51.39-.48.58-.73.1-.13.22-.37.16-.45-.11-.15-.32-.28-.5-.3-.09,0-.25.23-.3.39-.1.33-.16.67-.21,1.01,0,.06.12.14.18.21ZM53.54,7.74c-.09.07-.32.16-.37.31-.14.48.32.12.44.28.06.08.22.2.23.19.22-.21.43-.37.67-.03.03-.24.11-.48.07-.7-.02-.1-.3-.18-.47-.19-.15,0-.13.41-.57.15ZM268.09,10.25c.21.1.34.2.39.17.14-.08.31-.43.38-.04.13.67.79.35.82.3.28-.58-.41-.08-.46-.37-.02-.14-.07-.31-.16-.41-.13-.13-.4-.33-.46-.29-.19.14-.31.37-.52.64ZM76.97,6.34c.31-.03.5,0,.61-.08.09-.06.14-.37.13-.37-.31-.14-.62-.29-.94-.34-.07,0-.19.4-.29.62.21.07.43.14.5.17ZM60.44,12.09c.23.15.46.32.71.45.06.03.18-.05.27-.08-.09-.14-.22-.27-.26-.42-.06-.25-.06-.51-.1-.76-.01-.09-.08-.17-.13-.25-.06.1-.13.19-.18.29-.1.22-.18.44-.31.77ZM78.03,10.4c.05-.12.17-.3.14-.34-.18-.22-.38-.44-.62-.56-.08-.04-.32.17-.45.3-.07.07-.08.31-.07.31.31.11.63.19,1,.29ZM253.25,13.29c-.22-.13-.42-.29-.65-.38-.07-.03-.21.13-.31.21.42.29.36.44-.14.48-.03,0-.05.15-.07.22.25,0,.52.06.74-.03.17-.07.27-.31.42-.5ZM66.21,11.36c-.06-.12-.08-.19-.11-.2-.07-.01-.17-.02-.21.02-.14.15-.3.3-.38.48-.09.2-.1.43-.12.65,0,.01.22.09.25.06.11-.12.19-.27.27-.42.11-.21.21-.42.29-.58ZM68.56,8.22c-.06.03-.24.14-.42.25.13.2.24.41.4.58.02.03.27-.13.39-.23.11-.1.2-.23.29-.35.04-.06.05-.15.08-.22-.09-.02-.18-.06-.27-.07-.1,0-.2.02-.46.05ZM254.93,7.48c-.25.1-.47.19-.7.28.2.14.44.43.59.39.25-.06.44-.34.65-.52-.18-.05-.37-.09-.55-.14ZM260.27,10.42s-.02-.13-.05-.14c-.07-.02-.19-.05-.22-.01-.18.19-.37.39-.48.62-.04.09.1.3.21.41.04.05.28.01.3-.04.1-.27.16-.56.24-.84ZM39.46,6.63c.1-.01.22,0,.3-.04.12-.06.24-.15.3-.26.04-.06,0-.24-.06-.27-.12-.06-.3-.12-.41-.07-.22.09-.41.24-.61.38-.06.04-.08.14-.1.22,0,.02.07.09.11.09.15,0,.31-.03.46-.05ZM45.99,6.6c.13-.26.28-.54.41-.83.01-.03-.17-.19-.17-.19-.25.2-.49.41-.72.64-.03.03.03.2.09.26.06.06.18.05.4.11ZM73.72,11.49c.48.04.48-.29.38-.68-.02-.09-.08-.17-.13-.25-.07.04-.15.07-.2.13-.14.15-.27.31-.38.48-.05.09-.03.22-.05.33.1,0,.2,0,.37,0ZM70.14,8.82c.22-.18.34-.28.47-.39-.21-.12-.41-.27-.64-.35-.06-.02-.19.16-.29.25.14.14.27.29.46.49ZM65.25,9.68c.14-.42.23-.69.32-.96-.13-.04-.28-.14-.4-.11-.38.09-.19.4-.17.63,0,.1.11.2.25.45ZM280.84,10.22c-.11-.02-.25-.06-.4-.06-.09,0-.19.04-.28.08-.04.02-.1.08-.09.12.01.2.03.41.07.61.01.05.19.11.2.11.13-.2.25-.42.5-.85ZM257.05,8.07c.26-.27.45-.47.65-.68-.14-.04-.28-.12-.41-.11-.22.02-.57-.06-.51.35.02.12.13.22.27.43ZM14.76,13.08c-.27-.09-.38-.18-.48-.16-.22.04-.56-.09-.59.29,0,.12.12.25.18.38.25-.14.49-.28.88-.51ZM262.03,13.14c-.21.02-.32.02-.42.05-.13.05-.25.13-.38.2.14.04.28.08.41.11.23.06.46.14.69.19.05.01.19-.1.18-.14-.03-.14-.06-.33-.16-.39-.11-.07-.29-.02-.33-.02ZM67.94,3.96c.19-.27.34-.5.49-.72-.14-.02-.28-.06-.43-.06-.28,0-.53.06-.43.42.03.11.18.18.37.36ZM56.82,14.64c.33.27.44.38.57.44.05.02.21-.09.23-.16.05-.23.06-.48.09-.72-.13.05-.27.08-.4.15-.17.09-.33.19-.49.29ZM75.53,11.96c.1-.09.25-.2.36-.35.06-.08.05-.22.07-.33-.1,0-.22-.05-.28,0-.15.12-.29.27-.41.42-.03.04,0,.14.03.21.01.03.09.02.23.06ZM76.11,8.26c-.09-.17-.17-.34-.25-.51-.13.15-.39.34-.36.44.06.19.29.33.44.5.05-.13.1-.26.16-.42ZM262.76,7.49c.12.22.17.3.21.38.26-.18.52-.35.78-.53-.09-.04-.19-.13-.26-.11-.24.06-.47.16-.73.25ZM68.99,10.55c.2.23.39.47.59.7.03-.09.08-.19.07-.27-.04-.27.08-.68-.44-.59-.08.02-.15.11-.22.16ZM64.78,13.79c.2.07.39.17.58.19.13.01.27-.09.4-.14-.26-.15-.53-.3-.79-.44-.04.09-.08.17-.19.38ZM250.16,12.78c-.27-.09-.43-.18-.58-.17-.08,0-.22.28-.2.31.11.12.26.23.41.27.06.01.17-.18.36-.41ZM47.91,4.77c.1-.09.25-.2.36-.35.06-.08.05-.21.07-.33-.1,0-.22-.05-.28,0-.15.12-.29.27-.41.42-.03.04,0,.14.03.2.01.03.09.02.23.06ZM49.85,6.74c.23-.2.47-.39.7-.59-.09-.03-.19-.08-.27-.07-.27.04-.68-.08-.59.44.02.08.11.15.16.22ZM62.5,6.01c.5-.05.75-.05.98-.12.08-.03.12-.24.13-.38,0-.04-.2-.15-.25-.12-.22.13-.42.3-.85.62ZM259.57,8.55c.24.18.39.35.44.32.14-.07.27-.21.35-.35.02-.03-.18-.27-.26-.26-.15.02-.28.15-.53.29ZM68.78,6.97c.2-.11.28-.15.36-.2-.16-.15-.33-.31-.49-.46-.04.09-.13.19-.11.26.05.15.16.28.24.41ZM262.67,8.45c.16.15.31.28.46.41.04-.14.14-.35.1-.39-.12-.11-.31-.14-.48-.19-.01,0-.06.13-.08.17ZM254.83,12.85c.17.13.32.26.48.39.04-.14.15-.35.1-.39-.12-.11-.31-.15-.47-.2-.02,0-.07.13-.11.2ZM72.04,10.45c.11-.1.22-.2.34-.31-.14-.02-.3-.08-.43-.05-.15.04-.28.16-.41.24.14.03.28.07.5.12ZM248.61,9.39c.11.2.15.28.2.36.15-.16.31-.33.46-.49-.09-.04-.19-.13-.25-.11-.15.05-.28.16-.41.24ZM75.14,5.32c.07-.13.18-.27.22-.42.02-.06-.08-.16-.12-.24-.15.16-.31.33-.46.49.09.04.17.08.37.17ZM56.52,6.21c.32-.3.42-.36.48-.45.07-.1.11-.23.17-.34-.14-.02-.36-.09-.41-.03-.1.13-.11.33-.24.82ZM65.85,8.93c.1.21.16.34.22.47.06-.15.15-.29.15-.44,0-.13-.09-.27-.14-.41-.08.13-.16.26-.23.38ZM64.33,3.7c.15.04.3.11.46.13.07,0,.15-.11.22-.17-.19-.12-.38-.24-.58-.36-.02.09-.05.18-.1.4ZM274.85,11.75c-.13-.16-.2-.23-.26-.31-.12.19-.23.39-.35.58.09.02.21.09.27.06.13-.09.23-.22.34-.33ZM69.4,6.31c.09.17.18.34.27.51.04-.14.12-.28.1-.41-.03-.18-.13-.36-.21-.53-.05.13-.1.27-.17.44ZM258.2,9.26c.17.12.33.24.49.36.06-.1.18-.26.17-.28-.12-.11-.26-.21-.41-.27-.04-.02-.14.11-.24.19ZM260.37,7.97c.42.12.56.2.59.17.12-.11.2-.27.29-.4-.09-.04-.2-.14-.27-.12-.18.07-.33.19-.62.36ZM268.68,13.09c.04-.15.12-.3.13-.46,0-.07-.11-.15-.17-.22-.12.19-.24.38-.36.58.09.02.18.05.4.1ZM261.27,9.4c.05-.1.15-.22.13-.26-.09-.14-.22-.25-.35-.35-.02-.01-.16.14-.24.22.15.13.31.26.47.39ZM270.12,12.28c-.13-.17-.19-.24-.25-.31-.12.19-.24.38-.37.57.09.02.21.1.27.06.14-.08.24-.21.35-.32ZM67.2,2.98c-.07-.1-.14-.22-.22-.33-.04.09-.14.18-.12.25.03.13.12.25.19.38.04-.09.09-.17.15-.3ZM66.59,5.73c-.05-.02-.17-.05-.29-.09-.03.09-.1.2-.07.27.04.1.15.17.23.25.03-.09.05-.18.13-.43ZM63.77,14.24c.02-.05.05-.17.09-.29-.09-.03-.2-.1-.27-.07-.1.04-.17.15-.25.23.09.03.18.05.43.13ZM63.12,9.42c-.09-.11-.15-.18-.21-.26-.04.14-.1.27-.1.41,0,.07.11.15.17.22.05-.13.1-.26.14-.37ZM62.1,14.35c.11-.08.23-.14.22-.18-.02-.14-.09-.27-.14-.4-.07.05-.19.1-.18.14,0,.14.06.28.1.44ZM61.59,10.89c0-.18.03-.32,0-.46,0-.04-.14-.07-.21-.1-.02.14-.06.28-.05.42,0,.04.13.07.26.13ZM61.38,14.03c.11-.02.24-.04.24-.05,0-.14-.02-.28-.05-.41,0,0-.2,0-.2.02-.01.14,0,.28,0,.44ZM57.03,4.23c.13.23.17.31.22.4.06-.1.15-.19.17-.3.01-.07-.08-.16-.13-.25-.11.06-.21.12-.26.15ZM54.25,6.03c.02-.05.05-.17.09-.29-.09-.03-.2-.1-.27-.07-.1.04-.17.15-.25.23.09.03.18.05.43.13ZM54.74,12.46c.13.23.17.31.22.4.06-.1.15-.19.17-.3.01-.07-.08-.16-.13-.25-.11.06-.21.12-.26.15ZM47.26,5.44c0-.18.03-.32,0-.46,0-.04-.14-.07-.21-.1-.02.14-.06.28-.05.42,0,.04.13.07.26.13ZM46.85,15.06c.11-.08.23-.14.22-.18-.02-.14-.09-.27-.14-.4-.06.05-.19.1-.18.14,0,.14.06.28.1.44ZM45.02,12.89c-.05-.02-.17-.05-.29-.09-.03.09-.1.2-.07.27.04.1.15.17.23.25.03-.09.05-.18.13-.43ZM6.62,7.39c.1-.07.22-.14.33-.22-.09-.04-.18-.14-.25-.12-.13.03-.25.12-.38.19.09.04.17.09.3.15ZM271.01,8.98c.11-.09.18-.15.26-.21-.14-.04-.27-.1-.41-.1-.07,0-.15.11-.22.17.13.05.26.1.37.14ZM271.16,11.35c.13.23.17.31.22.4.06-.1.15-.19.17-.3.01-.07-.08-.16-.13-.25-.11.06-.21.12-.26.15ZM261.72,12.15c-.08-.11-.15-.23-.18-.22-.14.02-.27.09-.4.14.05.06.1.19.14.18.14,0,.28-.06.44-.1ZM260.24,6.92c-.1.07-.22.14-.33.22.09.04.18.14.25.12.13-.03.25-.12.38-.19-.09-.04-.17-.09-.3-.15ZM258.43,8.36c-.09-.11-.15-.23-.18-.22-.14.02-.27.09-.4.14.05.07.1.19.14.18.14,0,.28-.06.44-.1ZM258.51,10.4s.06-.17.07-.29c0-.02-.19-.1-.25-.07-.1.04-.17.15-.25.23.09.03.18.05.44.13ZM258.65,11.66s.06-.17.07-.29c0-.02-.18-.1-.25-.07-.1.04-.17.15-.25.23.09.03.18.05.44.13ZM256.84,11.09c.17,0,.32.03.46,0,.04,0,.07-.14.1-.21-.14-.02-.28-.06-.42-.05-.04,0-.07.13-.13.26ZM252.72,12.1c.13.23.17.31.22.4.06-.1.15-.19.17-.3.01-.07-.08-.16-.13-.25-.11.06-.21.12-.26.15ZM251.38,5.33c.07.1.14.22.22.33.04-.09.14-.18.12-.25-.03-.13-.12-.25-.19-.38-.04.09-.09.17-.15.3ZM250.51,10.32s.06-.17.07-.29c0-.02-.18-.1-.25-.07-.1.04-.17.15-.25.23.09.03.18.05.44.13ZM249.47,12.35c.23-.13.31-.17.4-.22-.1-.06-.19-.15-.3-.17-.07-.01-.16.08-.25.13.06.11.12.21.15.26ZM246.31,7.83c.11-.08.23-.14.22-.18-.02-.14-.09-.27-.14-.4-.07.05-.19.1-.18.14,0,.14.06.28.1.44ZM244.64,9.05c.23-.13.31-.17.4-.22-.1-.06-.19-.15-.3-.17-.07-.01-.16.08-.25.13.06.11.12.21.15.26ZM220.83,11.58c-.1.07-.22.14-.33.22.09.04.18.14.25.12.13-.03.25-.12.38-.19-.09-.04-.17-.09-.3-.15ZM254.17,10.6s-.09-.07-.12-.1c-.03.07-.07.15-.08.22,0,.03.07.06.11.09.03-.07.06-.15.09-.22ZM253.56,8.96s.1-.09.09-.11c-.02-.07-.08-.13-.12-.2-.03.04-.1.09-.09.11.02.07.08.13.12.2ZM253.61,9.87c.06-.04.13-.09.19-.13-.04-.03-.09-.1-.11-.09-.07.02-.13.08-.2.12.04.03.08.06.12.1ZM253.52,10.45c-.04-.06-.09-.13-.13-.19-.03.04-.1.09-.09.11.02.07.08.13.12.2.03-.04.06-.08.1-.12ZM268.56,6.4s-.07.09-.1.12c.07.03.15.07.22.08.03,0,.06-.07.09-.11-.07-.03-.15-.06-.22-.09ZM249.1,6.53c.06-.04.13-.09.19-.13-.04-.03-.09-.1-.11-.09-.07.02-.13.08-.2.12.04.03.08.06.12.1ZM248.93,7.92s-.07.09-.1.12c.07.03.15.07.22.08.03,0,.06-.07.09-.11-.07-.03-.15-.06-.22-.09ZM248.07,9.45s.09.07.12.1c.03-.07.07-.15.08-.22,0-.03-.07-.06-.11-.09-.03.07-.06.15-.09.22ZM247.57,7.82c.04.06.09.13.13.19.03-.04.1-.09.09-.11-.02-.07-.08-.13-.12-.2-.03.04-.06.08-.1.12ZM277.54,10.64s-.09-.1-.11-.09c-.07.02-.13.08-.2.12.04.03.09.1.11.09.07-.02.13-.08.2-.12ZM244.36,7.05c.06-.04.13-.09.19-.13-.04-.03-.09-.1-.11-.09-.07.02-.13.08-.2.12.04.03.08.06.12.1ZM237.24,9.68s.09.07.12.1c.03-.07.07-.15.08-.22,0-.03-.07-.06-.11-.09-.03.07-.06.15-.09.22ZM266.99,6.57s-.07.09-.1.12c.07.03.15.07.22.08.03,0,.06-.07.09-.11-.07-.03-.15-.06-.22-.09ZM266.82,6.07s-.09-.1-.11-.09c-.07.02-.13.08-.2.12.04.03.09.1.11.09.07-.02.13-.08.2-.12ZM267.79,14.9s-.09-.1-.11-.09c-.07.02-.13.08-.2.12.04.03.09.1.11.09.07-.02.13-.08.2-.12ZM266.25,8.2s.1-.09.09-.11c-.02-.07-.08-.13-.12-.2-.03.04-.1.09-.09.11.02.07.08.13.12.2ZM264.13,7.37s.09.07.12.1c.03-.07.07-.15.08-.22,0-.03-.07-.06-.11-.09-.03.07-.06.15-.09.22ZM264.89,12.78s.07-.09.1-.12c-.07-.03-.15-.07-.22-.08-.03,0-.06.07-.09.11.07.03.15.06.22.09ZM263.88,8.03s.09.07.12.1c.03-.07.07-.15.08-.22,0-.03-.07-.06-.11-.09-.03.07-.06.15-.09.22ZM261.88,5.76s.07-.09.1-.12c-.07-.03-.15-.07-.22-.08-.03,0-.06.07-.09.11.07.03.15.06.22.09ZM262.22,11.79s.07-.09.1-.12c-.07-.03-.15-.07-.22-.08-.03,0-.06.07-.09.11.07.03.15.06.22.09ZM261.08,5.78s.09.07.12.1c.03-.07.07-.15.08-.22,0-.03-.07-.06-.11-.09-.03.07-.06.15-.09.22ZM79.76,3.68s.09.07.12.1c.03-.07.07-.15.08-.22,0-.03-.07-.06-.11-.09-.03.07-.06.15-.09.22ZM259.33,7.25s.09.07.12.1c.03-.07.07-.15.08-.22,0-.03-.07-.06-.11-.09-.03.07-.06.15-.09.22ZM78.96,3.13c-.04-.06-.09-.13-.13-.19-.03.04-.1.09-.09.11.02.07.08.13.12.2.03-.04.06-.08.1-.12ZM77.64,3.34s.07-.09.1-.12c-.07-.03-.15-.07-.22-.08-.03,0-.06.07-.09.11.07.03.15.06.22.09ZM77.58,4.24s.09.07.12.1c.03-.07.07-.15.08-.22,0-.03-.07-.06-.11-.09-.03.07-.06.15-.09.22ZM76.95,8.62c-.06.04-.13.09-.19.13.04.03.09.1.11.09.07-.02.13-.08.2-.12-.04-.03-.08-.06-.12-.1ZM260.19,13.62s.07-.09.1-.12c-.07-.03-.15-.07-.22-.08-.03,0-.06.07-.09.11.07.03.15.06.22.09ZM73.52,8.84c-.04-.06-.09-.13-.13-.19-.03.04-.1.09-.09.11.02.07.08.13.12.2.03-.04.06-.08.1-.12ZM72.63,11.49s.09.07.12.1c.03-.07.07-.15.08-.22,0-.03-.07-.06-.11-.09-.03.07-.06.15-.09.22ZM70.66,13.94s.09.07.12.1c.03-.07.07-.15.08-.22,0-.03-.07-.06-.11-.09-.03.07-.06.15-.09.22ZM68.06,12.06s.07-.09.1-.12c-.07-.03-.15-.07-.22-.08-.03,0-.06.07-.09.11.07.03.15.06.22.09ZM67.63,10.44c-.04-.06-.09-.13-.13-.19-.03.04-.1.09-.09.11.02.07.08.13.12.2.03-.04.06-.08.1-.12ZM257.77,9.09s.07-.09.1-.12c-.07-.03-.15-.07-.22-.08-.03,0-.06.07-.09.11.07.03.15.06.22.09ZM258.24,12.71s-.09-.07-.12-.1c-.03.07-.07.15-.08.22,0,.03.07.06.11.09.03-.07.06-.15.09-.22ZM257.04,5.34s.07-.09.1-.12c-.07-.03-.15-.07-.22-.08-.03,0-.06.07-.09.11.07.03.15.06.22.09ZM60.67,5.85s.07-.09.1-.12c-.07-.03-.15-.07-.22-.08-.03,0-.06.07-.09.11.07.03.15.06.22.09ZM257.8,12.28s.07-.09.1-.12c-.07-.03-.15-.07-.22-.08-.03,0-.06.07-.09.11.07.03.15.06.22.09ZM60.34,9.49s-.07.09-.1.12c.07.03.15.07.22.08.03,0,.06-.07.09-.11-.07-.03-.15-.06-.22-.09ZM269.66,5.75s-.09-.1-.11-.09c-.07.02-.13.08-.2.12.04.03.09.1.11.09.07-.02.13-.08.2-.12ZM59.79,8.39s-.09-.1-.11-.09c-.07.02-.13.08-.2.12.04.03.09.1.11.09.07-.02.13-.08.2-.12ZM57.61,7.51s.1-.09.09-.11c-.02-.07-.08-.13-.12-.2-.03.04-.1.09-.09.11.02.07.08.13.12.2ZM58.06,11.61s.1-.09.09-.11c-.02-.07-.08-.13-.12-.2-.03.04-.1.09-.09.11.02.07.08.13.12.2ZM58.08,12.77s.09.07.12.1c.03-.07.07-.15.08-.22,0-.03-.07-.06-.11-.09-.03.07-.06.15-.09.22ZM256.65,11.93c.04.06.09.13.13.19.03-.04.1-.09.09-.11-.02-.07-.08-.13-.12-.2-.03.04-.06.08-.1.12ZM55.58,3.58s.1-.09.09-.11c-.02-.07-.08-.13-.12-.2-.03.04-.1.09-.09.11.02.07.08.13.12.2ZM55.03,10.62c.06-.04.13-.09.19-.13-.04-.03-.09-.1-.11-.09-.07.02-.13.08-.2.12.04.03.08.06.12.1ZM52.44,7.96s.09.07.12.1c.03-.07.07-.15.08-.22,0-.03-.07-.06-.11-.09-.03.07-.06.15-.09.22ZM52.05,5.84s.07-.09.1-.12c-.07-.03-.15-.07-.22-.08-.03,0-.06.07-.09.11.07.03.15.06.22.09ZM52.44,11.7s-.09-.07-.12-.1c-.03.07-.07.15-.08.22,0,.03.07.06.11.09.03-.07.06-.15.09-.22ZM52.56,14.88c.04.06.09.13.13.19.03-.04.1-.09.09-.11-.02-.07-.08-.13-.12-.2-.03.04-.06.08-.1.12ZM48.65,6.94c-.06.04-.13.09-.19.13.04.03.09.1.11.09.07-.02.13-.08.2-.12-.04-.03-.08-.06-.12-.1ZM256.36,10.14c-.04-.06-.09-.13-.13-.19-.03.04-.1.09-.09.11.02.07.08.13.12.2.03-.04.06-.08.1-.12ZM48.02,12.76c-.06.04-.13.09-.19.13.04.03.09.1.11.09.07-.02.13-.08.2-.12-.04-.03-.08-.06-.12-.1ZM255.19,10.26s.09.07.12.1c.03-.07.07-.15.08-.22,0-.03-.07-.06-.11-.09-.03.07-.06.15-.09.22ZM39.99,8.05s.09.07.12.1c.03-.07.07-.15.08-.22,0-.03-.07-.06-.11-.09-.03.07-.06.15-.09.22ZM23.85,13.73s.07-.09.1-.12c-.07-.03-.15-.07-.22-.08-.03,0-.06.07-.09.11.07.03.15.06.22.09ZM255.43,11.04c-.06.04-.13.09-.19.13.04.03.09.1.11.09.07-.02.13-.08.2-.12-.04-.03-.08-.06-.12-.1ZM7.12,10.18s.1-.09.09-.11c-.02-.07-.08-.13-.12-.2-.03.04-.1.09-.09.11.02.07.08.13.12.2ZM1.76,8.26s-.07.09-.1.12c.07.03.15.07.22.08.03,0,.06-.07.09-.11-.07-.03-.15-.06-.22-.09ZM269.55,7.68s-.09-.1-.11-.09c-.07.02-.13.08-.2.12.04.03.09.1.11.09.07-.02.13-.08.2-.12ZM288.21,7.71c-.26.09-.83.26-1.38.49-.12.05-.17.3-.25.45.18.03.37.13.52.08.17-.06.39-.55.43.02.04.67.6.81.96,1.15.11.1.61-.2.32.31-.16.27-.35.51-.74.24-.37-.25-.72-.53-1.14-.74-.58-.29-1.07-.49-1.73-.42-.52.05-.76-.55-1.17-.8-.29-.18-.5-.5-.77-.73-.04-.04-.24.03-.31.1-.09.09-.12.23-.18.35.42.02.13.79.7.67.05,0,.19.21.18.22-.12.13-.27.34-.4.34-.38-.01-.61-.49-1.15-.23-.46.22-.5-.43-.75-.68-.33-.33-.73-.6-1.1-.9-.38.56-.75.01-1.11-.05-.16-.03-.54-.2-.17-.53.15-.13.24-.33.35-.5.09-.14.16-.39.27-.42.26-.06.58.37.83-.08.52.4.98.83,1.74.87.51.03.5.22.69-.17.06-.12.09-.28.18-.37.05-.05.2-.03.29,0,.04.01.06.14.05.21-.04.19-.1.37-.15.56.19-.08.4-.13.57-.24.21-.13.42-.29.56-.49.18-.25.27-.08.46-.03.52.15,1.01.39,1.61.27.39-.08.16.21.05.36-.12.17-.28.33-.33.51-.03.1.09.28.19.38.05.05.2,0,.3-.03.04-.01.06-.1.1-.11.42-.09.04-.81.59-.76.34.03.67.18,1,.21.39.03.92.13,1.15-.07.38-.34.83-.4,1.15-.3.4.12.75.35,1.12.04.36-.31.68-.39,1.1-.1.1.07.39-.01.51-.11.27-.22.63-.28.65-.05.04.46.12.95,0,1.37-.08.28.09.3.14.45.13.36.41.83-.32.89.03.1.02.24.09.29.35.29.28.86-.19.96-.66.14-.98.54-1.22,1.1-.06.14-.19.24-.29.36-.07-.13-.16-.26-.19-.4-.05-.25,0-.49-.42-.5-.82-.01-1.68-.48-2.43.27-.09.09-.31.06-.46.05-.08,0-.16-.09-.23-.14.03-.04.06-.09.1-.12.55-.35,1.1-.7,1.65-1.03.08-.05.22-.01.33-.02-.05-.14-.11-.4-.15-.4-.79.04-.61-.59-.62-.98-.02-1.17-.06-1.25-1.1-1.14-.05,0-.11.01-.49.05ZM293.06,8.77c.07-.06.21-.15.2-.19-.09-.29-1-.7-1.33-.65-.43.07-.29.38-.24.6.04.14.24.23.37.35.29-.44.65-.19,1-.11ZM284.82,8.46c.22.22.42.52.51.49.21-.07.37-.3.55-.46-.22-.15-.43-.33-.66-.44-.05-.02-.22.22-.39.41ZM293.21,10.04c.08-.07.2-.14.2-.21,0-.2-.03-.41-.06-.61-.11.02-.22.02-.32.05-.23.07-.47.13-.68.23-.06.03-.06.18-.09.28.32.09.64.18.96.27ZM291.4,8.8c-.1-.05-.22-.15-.26-.13-.14.09-.26.22-.35.35-.01.02.14.16.22.24.13-.16.26-.31.39-.47ZM282.06,8.59c-.04-.06-.09-.13-.13-.19-.03.04-.1.09-.09.11.02.07.08.13.12.2.03-.04.06-.08.1-.12ZM287.15,9.42s.1-.09.09-.11c-.02-.07-.08-.13-.12-.2-.03.04-.1.09-.09.11.02.07.08.13.12.2ZM302.14,7.77c-.27.24-.54.49-.82.72-.05.04-.19-.01-.28-.02.03-.11.08-.23.1-.34.02-.14.06-.3.03-.44-.03-.18.05-.63-.37-.22-.13.13-.41.14-.49.29-.28.53-.49-.19-.99.03-.01-.07.4.12.23-.34-.04-.12-.22-.3-.23-.3-.23.16-.45.34-.67.51.15.07.31.13.68.13.31.38-.05.24-.25.34-.21.11-.44.26-.56.45-.07.11.04.34.08.52.16-.07.37-.11.48-.23.22-.27.17-.27.32-.1.28.31.39.66.45,1.08.08.52.46.76,1.01.63.09.1.16.22.27.28.12.07.27.08.41.12-.07.06-.13.15-.21.18-.22.09-.46.15-.68.23.08.14.21.27.23.41.02.12-.1.26-.16.39-.28.42-.28.42.09.63.08.05.18.06.27.09-.04.07-.08.2-.13.2-.78.1-1.56.18-2.34.26-.43.04-.3-.31-.37-.53-.12-.36-.29-.35-.28-.23.02.65-.23.35-.58.28-.41-.07-.9-.03-1.22.37-.64-.51-.61.27-.82.47-.24.24-.45.41-.78.39.06-.13.15-.26.16-.39.02-.17.02-.46-.06-.5-.23-.11-.44-.09-.5.29-.06.37-.25.72-.41,1.06-.05.1-.19.16-.29.24-.05-.19-.11-.37-.17-.63,0-.02,0,.02,0,.07.08-.04.17-.06.23-.12.02-.02-.05-.12-.07-.19-.06.06-.11.11-.16.24-.22.05-.71.2-.61-.09.25-.7-.19-.93-.59-1.25-.11-.09-.18-.23-.26-.35.91-.11.9-.12,1.44-.88.15-.21.37-.42.6-.49.2-.06.46.07,1.21.25.2.03-.08-.06-.36-.15-.05-.01-.1,0-.16.01.17.18.33.38.52.54.06.05.21.03.29,0,.07-.03.11-.13-.3-.4-.33-.73.07-.56.44-.38.55.27.63.02.58-.46-.01-.14.06-.28.1-.43.12.09.32.17.36.28.17.59.58.65,1.06.5.52-.16.38.37.6.5.1.06.28,0,.42-.02-.05-.11-.12-.21-.15-.32-.1-.35-.25-.55-.46-.51-.42.08-.71.06-.72-.49,0-.12-.23-.33-.36-.34-.31-.02-.63.09-.94.07-.18-.01-.42-.14-.51-.29-.27-.44.28-.2.35-.37.11-.27.3-.54.32-.82.03-.36-.04-.74-.12-1.1-.02-.1-.2-.24-.3-.24-.11,0-.32.16-.31.24.04.36-.16.56-.43.44-.24-.11-.37-.44-.53-.69-.02-.03.09-.19.14-.19.56-.03,1.13-.08,1.69-.04.69.06,1.36.31,2.06-.05.26-.14.62-.11.94-.11.3,0,.63,0,.88.12.28.14.34-.43.71-.08.33.32.73-.07,1.06-.32.07-.05.27.07.4.11-.07.16-.12.34-.22.48-.04.06-.2.03-.31.04-.45.06-.35.21-.08.43.17.14.3.33.44.49ZM293.52,12.5c.22-.11.44-.21.63-.34.05-.03.06-.22.02-.25-.14-.1-.31-.17-.46-.25-.11.22-.23.43-.32.66-.02.05.11.15,1.24-.01-.06-.06-.11-.11-.17-.17-.04.05-.08.1-.12.16.07.04.13.09.21.12.01,0,.06-.07-1.02.09ZM297.31,7.49c-.11.05-.36.09-.41.21-.15.39-.23.81-.33,1.22,0,.02.07.07.12.1.46.33.69-.64,1.17-.22.07-.13.16-.24.2-.38.09-.33.31-.76.18-.97-.23-.39-.45.46-.92.04ZM298.83,9.9c.06.28.07.49.17.66.05.08.31.12.4.06.55-.35-.33-.59-.09-.95.04-.06,0-.24-.06-.29-.05-.04-.26-.01-.28.04-.08.17-.1.36-.13.48ZM299.53,12.68c.19-.36.34-.64.47-.93,0-.02-.3-.2-.31-.19-.2.24-.39.5-.56.77-.01.02.18.16.39.34ZM293.85,13.17c-.13-.16-.2-.23-.26-.31-.12.19-.23.39-.35.58.09.02.21.09.27.06.13-.09.24-.22.34-.33ZM295.5,12.38c-.06.04-.13.09-.19.13.04.03.09.1.11.09.07-.02.13-.08.2-.12-.04-.03-.08-.06-.12-.1ZM296.09,11.9s.07-.09.1-.12c-.07-.03-.15-.07-.22-.08-.03,0-.06.07-.09.11.07.03.15.06.22.09ZM299.94,11.05s-.09-.1-.11-.09c-.07.02-.13.08-.2.12.04.03.09.1.11.09.07-.02.13-.08.2-.12ZM303.68,7.28c.52-.11.17-.5.25-.75.02-.07.17-.09.26-.13.1.69.29.36.58.09.24-.22.69-.23.89-.47.34-.4.57-.1.9-.07.65.06,1.41,0,1.96-.31.49-.28.48.18.72.2-.35.46-.12.67.3.44.42-.23.77-.17,1.17-.1.29.05.59.12.88.09.25-.02.49-.21.75-.26.24-.04.61-.09.73.05.53.57,1.14.33,1.75.32.44-.01.92-.32,1.33.11.31-.25.62-.55.99-.07.22-.17.34-.54.74-.28.2.13.45.18.68.27-.21.09-.41.21-.63.25-.41.07-.84.12-1.26.14-.49.03-.92.12-1.18.6-.03.05-.28.05-.3.02-.09-.23-.15-.48-.22-.72-.26.12-.5.31-.77.36-.41.07-.21.41-.34.56-.09.1-.49.09-.5.07-.11-.52-.26-.47-.64-.17-.18.14-.76.33-.77-.34-.11,0-.21.01-.32.02.1.92-.65.44-1,.56-.42.14.35-.8-.43-.58-.4.11-.97-.04-1.22.19-.36.33-.73.34-1.12.4-.08-.12-.16-.24-.25-.34-.24-.26-.48-.51-.73-.76-.09.42-.19.83-.28,1.25-.31-.03-.73-.2-.91-.07-.44.34-.47-.21-.71-.23-.29-.03-.6-.02-.88-.08-.16-.03-.29-.17-.44-.26ZM312.49,6.52c-.04-.06-.09-.13-.13-.19-.03.04-.1.09-.09.11.02.07.08.13.12.2.03-.04.06-.08.1-.12ZM283.92,13.1s.12-.05.19-.08c.04.13.1.26.12.4,0,.05-.07.11-.43,0-.2.01-.19.33-.13.64.03.17.15.32.23.48.13-.16.28-.32.39-.5.04-.07-.06-.26-.02-.3.16-.14.5-.22.51-.35.02-.19-.31-.47-.25-.61.1-.24.39-.4.6-.59.09.1.26.21.25.3-.02.18-.25.45-.2.5.23.26.43.09.64-.12.05-.05.3.11.46.16.15.04.37.14.45.08.41-.32.4-.9-.07-1.07-.32-.12-.43-.21-.37-.5.04-.18.49-.43-.1-.42-.09,0-.21.27-.25.43-.03.14.05.31.03.47-.01.13-.09.25-.14.37-.05-.08-.14-.16-.16-.25-.04-.21-.05-.42-.08-.63-.05-.33-.03-.3-.44-.05-.12.07-.39.02-.52-.07-.14-.11-.19-.34-.32-.48-.07-.08-.22-.07-.34-.1.18.57-.83.54-.58,1.19.13.34.1.73.38,1.4.18.02.14-.15.12-.32ZM336.25,10.09c-.09.05-.17.09-.26.14.11.06.21.15.32.16.15.01.39.02.45-.07.29-.46.64-.67,1.17-.42.05-.17.19-.43.12-.5-.16-.18-.44-.24-.63-.41-.51-.45-.88.3-1.31.14-.39-.15-.74-.27-1.17-.19-.32.06-.71-.37-1.01.11-.01.02-.26-.07-.36-.16-.13-.11-.23-.26-.34-.39-.1.14-.24.27-.29.42-.11.35-.31.37-.58.2-.13-.08-.34-.18-.36-.3-.13-.7-.33-.37-.59-.08-.12.14-.32.23-.48.33-.36.21-.04.29.08.4.07.07.2.21.24.19.22-.1.45-.37.61-.33.28.07.51.49.76.48.73-.01,1.63.07,2.14-.31.77-.57,1.07.22,1.6.24.05,0,.11.13.16.2-.09.05-.18.1-.26.14ZM311.09,11.64c-.47-.08-1.05-.31-1.39-.12-.39.22-.56.27-.92.03-.14-.1-.47.08-.71.13.18.09.38.16.54.28.14.11.36.36.34.39-.22.29-.16.57.17.38.8-.47,1.55-.58,2.42-.26.25.09.71.02.88-.15.34-.35.53-.28.91-.08.32.17.73-.3.72-.73,0-.08-.12-.15-.18-.23-.4.59-.69.51-.89-.14-.07.03-.21.07-.21.08.13.6-.33.52-.93.61-.09-.02-.41-.13-.75-.19ZM288.88,14.54c.32.23,1.01-.25,1.05.55,0,.03.18.07.27.06.54-.09,1.08-.21,1.01.65,0,.04.05.1.09.11.3.11,1.13-.69,1.07-1.04-.01-.09-.15-.24-.15-.23-.52.33-1.16-.7-1.64.14-.03.05-.2.02-.3.02,0-.11-.03-.25.03-.34.2-.3.04-.45-.17-.65-.33-.31-.67-.27-.98-.06-.19.13-.29.39-.39.54.07.15.08.21.11.24ZM275.33,6.96c-.05.01-.06.27-.06.42,0,.05.11.09.16.14.2-.44.42-.28.67-.05.27.25.28.22.88-.08.11-.06.33-.07.41,0,.19.15.31.38.48.56.17.18.36.34.54.51.29-.36.03-.55-.22-.74,0,0,.04-.07.04-.11.02-.86-.07-.98-.76-.94-.31.02-.63.07-1.27.14-.08.01-.49.07-.89.17ZM339.24,9.77c.33.02.36.76.94.32.33-.24.89-.16,1.32-.29.16-.05.27-.31.4-.47-.18-.04-.37-.13-.54-.11-.38.06-.66-.04-.99-.25-.57-.38-.69-.32-.97.24.12.15-.02.25-.13.22-.1-.02-.17-.18-.26-.28.1-.01.2-.04.29-.03.12.01.23.06.1.08-.57,0-.75.04-.93.08.09.13.19.26.27.39.02.04.01.09.02.14.16-.02.31-.06.46-.05ZM304.72,12.28c-.25.25-.03.35.19.28.27-.08.52-.36.76-.34.32.03.62.4.93.39.35,0,.69-.26,1.03-.4-.24-.16-.47-.39-.74-.46-.47-.12-.97-.14-1.68-.24-.58-.29-.26.52-.5.76ZM289.84,12.64s.18.02.28.02c.37.01.37.01.37-.42-.34.06-.68-.64-1.02,0-.02.03-.18.04-.21,0-.48-.62-.88-.19-1.3.09-.52.33.05.54.07.81.62-.11,1.3.02,1.81-.51ZM311.07,15.08c.05-.01.08-.14.09-.21,0-.02-.08-.09-.12-.09-.21.01-.43.1-.62.05-.28-.07-.54-.22-.8-.34.14-.19.27-.39.43-.56.1-.1.26-.13.39-.19-.15-.13-.29-.34-.46-.38-.23-.05-.6-.06-.71.08-.27.33-.42.75-.61,1.14,0,.01.08.09.12.09.66-.05,1.05.95,1.7.48.27-.03.43-.03.58-.07ZM302.97,12.38c.12.36.29.71.43,1.06.14.34.43.33.57.1.3-.52.48.2.72.02-.02-.15-.07-.31-.04-.45.06-.41-.8.22-.54-.5.07-.19-.37-.55-.57-.83-.41,0-.74.08-.57.6ZM298.26,14.25c-.14,0-.56.3-.41-.25.03-.1-.01-.22-.02-.33-.16.02-.31.03-.47.05-.1.42-.13.88-.32,1.26-.34.71.32.21.45.39.28.38.34.14.36-.19.02-.4.38-.24.6-.31-.32-.13.85-.69-.18-.63ZM304.03,15.28c.29.29.61.54.93.79.02.01.16-.15.25-.23-.82-.3.51-1.22-.42-1.49.18-.3.36-.6.52-.91.02-.04-.1-.16-.16-.24-.07.07-.13.15-.2.21-.08.06-.17.1-.25.14-.07.36-.12.72-.21,1.08-.03.1-.18.17-.28.26-.06.13-.2.35-.17.39ZM312.25,15.59c.4-.29.8-.57,1.15-.91.16-.15.27-.45.25-.66-.02-.24-.69-.21-.92.1-.29.4-.51.85-.76,1.29-.02.03,0,.07,0,.11.09.03.22.11.27.07ZM283.14,12.25c-.12-.47-.3-.92-.47-1.38-.04-.11-.12-.2-.18-.29-.04.09-.11.17-.13.26-.07.28-.23.6-.15.84.1.3.38.44-.18.62-.28.09.08.21.24.22.35.02.27.16.12.36-.04.05.03.18.06.32.45-.24.82-.45.69-.95ZM287.64,14.14c-.3-.16-.6-.34-.93-.44-.14-.04-.34.09-.52.14.05.14.08.29.16.41.2.27.69.33.59.81-.03.15-.06.3-.09.46.21-.02.46.03.61-.07.32-.2-.06-.27-.12-.4-.12-.25-.17-.49.22-.56.09-.02.17-.09.26-.15-.06-.07-.1-.16-.17-.2ZM363.82,5.27c.04-.06-.02-.2-.04-.3-.19.08-.38.21-.57.22-.34.02-.7-.1-1.03-.05-.29.04-.56.24-.83.37.05.07.08.15.15.2.23.2.49.47.76.09.34-.47.61-.07,1.01.08.16-.18.37-.39.55-.62ZM299.62,15.97c.06-.14.1-.3.18-.43.17-.27.41-.3.62-.07.13.13.16.35.29.49.11.13.28.35.43.04.07-.14.14-.31.1-.45-.15-.58-.65-.58-1.12-.63-.37-.04-.66.15-.66.59.03.09.09.27.16.46ZM357.49,5.92c-.06-.14-.23-.35-.35-.35-.65,0-1.3.28-1.93-.11-.03-.02-.26.16-.27.26,0,.12.13.36.19.36.7-.09,1.4-.15,2.26.29.04-.17.14-.34.1-.45ZM344.08,9.34c-.49.03-.98.09-1.45.19-.02,0,.05.46.08.7.11-.05.23-.08.31-.15.25-.24.43-.07.66.05.34.17.6.09.49-.54,0,.01-.05-.25-.09-.25ZM303.12,6.78c-.36.26-.98.36-.98.99.47.25.89.36,1.21-.23.06-.11.22-.17.34-.25-.05-.34-.05-.87-.56-.5ZM274.81,15.37c-.56-.21-1.12-.46-1.73-.25-.06.02-.14.15-.13.16.07.08.17.13.23.21.25.3.4.13.55-.1.13.19.24.5.4.54.24.05.53-.1.8-.16-.06-.21-.06-.38-.11-.4ZM296.08,15.44c.28-.23.45-.6.64-.92.01-.02-.29-.29-.33-.26-.35.21-.68.45-1.01.7-.04.03-.01.14-.02.33.25.06.6.25.72.15ZM317.8,14.92c.13-.09.04-.48.05-.73-.14.06-.33.08-.42.19-.25.27-.45.64-.87.22-.03-.03-.21.03-.21.04.03.25.06.5.12.74.01.04.18.04.14.03.48-.18.88-.27,1.19-.49ZM277.98,9.28c.22-.03.47.07.7.12-.06-.19-.12-.54-.17-.54-.66.03-1.33.11-1.99.18-.04,0-.07.08-.1.12.08.05.16.09.24.14.14.09.29.18.43.27.29-.1.58-.25.88-.29ZM325.42,9.02c.12-.09.11-.41.09-.62,0-.11-.17-.2-.26-.3-.12.12-.29.23-.34.37-.12.36-.26.66-.7.71-.05,0-.09.13-.14.2.09.03.18.06.34.11.31-.14.69-.26,1-.48ZM364.55,5.97c.04.12.14.22.22.32.03-.14.05-.29.09-.43.01-.05.04-.1.08-.13.33-.27.33-.5,0-.7-.04-.03-.08-.06-.12-.1-.17-.15-.34-.3-.36.09,0,.16.03.32.05.47.02.16.01.32.06.47ZM281,13.12c-.07.22-.57.57.15.46.53-.08.62.17.61.59.56-.19.32-.67.15-.84-.26-.27-.26-1.01-.95-.67.02.15.08.32.04.46ZM272.13,14.87c-.07-.03-.14-.08-.21-.12.04-.05.08-.1.13-.16.06.06.11.11.01.09-.25.07-.34.21-.43.36.12.07.24.19.35.18.31,0,.62-.06.93-.09.06-.43-.2-.68-.53-.84-.24-.11-.51-.08-.33.39.12.12.08.19.07.18ZM289.14,8.73c-.08-.16-.19-.31-.28-.46-.16.11-.35.19-.48.33-.38.44.2.43.34.62.1.14.33.19.51.29-.02-.16-.03-.31-.05-.47-.01-.1,0-.22-.04-.31ZM291.09,11.86c-.13-.1-.31-.28-.43-.25-.37.09-.15.41-.17.64.4.26.84.27,1.3.18-.23-.19-.46-.38-.7-.56ZM282.95,10.51c.11-.03.2-.18.29-.27-.25-.21-.5-.42-.76-.61-.02-.01-.18.17-.48.47.56-.05.46.56.95.42ZM326.51,8.61c-.23.07-.45.17-.66.28-.1.06-.16.19-.24.28.12.1.23.22.37.28.08.04.23,0,.32-.06.24-.17.46-.37.78-.63-.38-.11-.48-.18-.56-.16ZM274.62,7.3c-.03-.35-.01-.77-.57-.58-.15.05-.29.18-.41.3-.04.04.75.61.97.59,0-.09.02-.2.01-.31ZM294.7,15.62c-.09.03-.17.09-.26.13.1.06.2.14.31.17.28.09.56.18.85.22.12.02.26-.11.4-.17-.17-.15-.32-.33-.52-.43-.12-.06-.31.02-.46.04-.1.01-.21,0-.31.04ZM314.86,11.84c-.06.02-.1.16-.1.25,0,.09.03.22.1.26.27.17,1.09-.08,1.15-.35.02-.07-.06-.21-.13-.24-.13-.04-.29-.03-.38-.03-.25.04-.45.05-.64.11ZM298.79,15.1s-.03-.11-.07-.13c-.09-.04-.21-.1-.27-.07-.06.03-.06.17-.09.27-.09.26.23.87.5.95.05.01.12.01.15-.02.06-.06.1-.14.07-.1-.12-.35-.21-.63-.3-.9ZM354.34,6.17c.11-.05.22-.16.28-.27.03-.06-.02-.24-.08-.26-.13-.06-.3-.1-.42-.05-.13.05-.19.23-.31.33-.11.1-.24.18-.37.27.14.03.29.05.32.06.27-.03.43-.02.57-.07ZM277.8,15.45c.25,0,.5,0,.74.03.19.02.37.12.56.13.08,0,.24-.13.24-.15-.04-.13-.11-.34-.2-.35-.2-.04-.41.03-.81.07-.06.03-.29.15-.52.27ZM301.92,12.06c-.41,0-.82.02-1.22.03.05.09.09.24.14.24.32.03.62.04.6.49,0,0,.21.05.21.03.08-.23.14-.46.27-.89,0,.17,0,.13,0,.1ZM360.62,5.61c-.19-.02-.39-.01-.58-.05-.14-.03-.26-.13-.4-.15-.08,0-.25.12-.24.15.04.13.1.32.2.36.12.05.3-.02.61-.05.06-.03.23-.14.41-.25ZM352.46,6.38c.18,0,.37-.09.56-.15-.21-.16-.42-.33-.65-.45-.05-.03-.2.14-.43.31.24.14.38.28.52.29ZM271.4,15.51c-.22-.07-.46-.09-.69-.13,0,.05,0,.11.02.15.08.16.15.41.27.44.21.05.46-.03.83-.07-.23-.21-.32-.35-.43-.39ZM345.19,10.05c.18,0,.37-.09.56-.15-.21-.16-.42-.33-.65-.45-.05-.03-.2.14-.43.31.24.14.38.28.52.29ZM256.49,15.35c-.26,0-.53.03-.78.08-.11.02-.2.12-.3.18.12.1.27.3.37.28.29-.06.57-.21.87-.33-.06-.09-.11-.22-.16-.22ZM316.7,12.13c-.22-.07-.46-.09-.69-.13,0,.05,0,.11.02.15.08.16.15.41.27.44.21.05.46-.03.83-.07-.23-.21-.32-.35-.43-.39ZM254.87,13.61c-.43-.06-.86.27-.81.52.1.44.57.06.88.12-.02-.21-.05-.42-.07-.63ZM285.19,13.9c-.07-.01-.18-.02-.21.02-.12.15-.24.32-.31.49-.03.07.05.18.07.27.1-.05.24-.07.3-.15.12-.14.19-.32.26-.43-.07-.13-.08-.2-.11-.2ZM74.75,14.89c-.16.07-.31.16-.46.23.19.02.38.06.57.07.15,0,.31-.01.45-.05.08-.02.14-.12.22-.18-.06-.05-.11-.13-.17-.13-.15,0-.3.03-.45.04-.05,0-.11,0-.15.02ZM349.85,6.12c-.07-.14-.21-.27-.35-.35-.03-.02-.27.18-.26.26.02.15.15.28.29.53.18-.24.35-.39.32-.44ZM329.66,8.4c-.09-.04-.23-.13-.26-.1-.21.18-.39.38-.58.58.09.03.19.05.4.11.13-.17.28-.38.44-.59ZM323.11,15.67c.13-.09.2-.27.29-.41-.11-.07-.25-.22-.33-.19-.14.05-.25.21-.45.4.27.11.44.24.49.2ZM307.82,14.51c-.13-.01-.27.09-.4.14.27.14.54.29.81.43.04-.09.08-.17.18-.39-.2-.07-.39-.16-.58-.18ZM270.89,14.16c-.09-.14-.22-.32-.35-.34-.18-.02-.37.09-.55.15,0,0,0,.09,0,.1.27.1.53.2.81.3.02-.04.12-.17.1-.21ZM321.33,9.13c.01-.07.02-.18-.01-.21-.15-.12-.31-.24-.49-.32-.07-.03-.18.04-.27.07.04.1.06.24.14.3.14.12.32.19.43.26.13-.06.2-.08.21-.1ZM319.74,7.42c.07,0,.15-.11.23-.17-.3-.11-.59-.22-.89-.33-.02.09-.05.18-.11.42.27.03.52.07.77.08ZM315.15,8.59c-.24.04-.48.1-.71.18-.04.01-.05.19-.02.28.03.09.16.22.17.22.23-.16.46-.34.69-.52-.03-.03-.09-.16-.12-.15ZM329.56,8.91c-.04.05-.13.11-.12.16,0,.25.03.51.39.44.08-.02.16-.09.25-.15-.17-.15-.35-.3-.52-.45ZM294.88,14.47c-.17-.14-.34-.28-.5-.41-.04.13-.15.29-.11.38.07.13.24.21.36.3.13-.14.19-.2.26-.26ZM257.59,15.07c.14.04.28.12.41.1.18-.03.36-.13.53-.21-.13-.05-.27-.1-.44-.17-.17.09-.34.18-.51.27ZM299.43,15.1c-.03-.32-.07-.63-.1-.95-.4.36-.36.68.1.95ZM304.18,14.74c-.13-.04-.27-.13-.39-.11-.18.02-.35.12-.53.18.15.07.31.13.49.21.17-.11.3-.19.43-.28ZM306.11,15.02c-.01-.1-.13-.19-.21-.29-.12.15-.25.31-.37.46.1.06.2.13.43.27.07-.19.16-.32.15-.44ZM306.63,15.26c.04-.13.13-.27.11-.39-.02-.18-.12-.35-.18-.53-.07.15-.13.31-.21.49.1.16.19.3.28.43ZM318.92,15.19c.14.09.31.28.43.25.38-.09.15-.41.17-.64-.2.13-.4.26-.6.38ZM343.23,6.34c.14.02.3.08.43.05.15-.04.28-.16.41-.24-.14-.03-.28-.07-.5-.12-.11.1-.22.2-.34.31ZM313.03,8.17c.02-.06-.07-.16-.12-.25-.16.16-.32.32-.48.48.08.04.17.09.36.18.08-.13.19-.26.24-.41ZM354.38,9.9c-.1-.06-.19-.15-.3-.17-.07-.01-.16.08-.25.13.06.11.12.21.15.26.23-.13.31-.17.4-.22ZM347.92,6.36c-.09-.03-.2-.1-.27-.07-.1.04-.17.15-.25.23.09.03.18.05.43.13.02-.05.05-.17.09-.29ZM346.4,6.58c.14.04.27.1.41.1.07,0,.15-.11.22-.17-.13-.05-.26-.1-.37-.14-.11.09-.18.15-.26.21ZM338.8,10.11c.01-.1-.02-.2-.03-.29-.1.08-.25.16-.28.26-.02.11.07.25.17.52.07-.26.12-.37.14-.49ZM337.94,6.7s.07-.14.1-.21c-.14-.02-.28-.06-.42-.05-.04,0-.07.13-.13.26.17,0,.32.03.46,0ZM325.69,16.25c0-.14-.02-.28-.05-.41,0,0-.2,0-.2.02-.01.14,0,.28,0,.44.11-.02.24-.04.24-.05ZM323.53,9.25c-.04.05-.14.13-.12.16.06.15.15.29.23.44.03-.08.07-.17.12-.3-.07-.09-.15-.2-.23-.3ZM322.48,9.06c-.13.03-.25.12-.38.19.09.04.18.13.26.12.13-.02.26-.1.42-.17-.13-.07-.23-.16-.3-.14ZM320.02,6.71c.06-.1.15-.19.17-.3.01-.07-.08-.16-.13-.25-.11.06-.21.12-.26.15.13.23.17.31.22.4ZM320.34,7.86s-.14-.07-.21-.1c-.02.14-.06.28-.05.42,0,.04.13.07.26.13,0-.17.03-.32,0-.46ZM318.9,15.04c-.02-.14-.08-.27-.12-.4-.07.03-.19.06-.19.08.02.17.06.34.12.62.12-.18.19-.24.19-.3ZM317.06,13.27c-.09-.03-.2-.1-.27-.07-.1.04-.17.15-.25.23.09.03.18.05.43.13.02-.05.05-.17.09-.29ZM315.92,14.45c-.1-.06-.19-.15-.3-.17-.07-.01-.16.08-.25.13.06.11.12.21.15.26.23-.13.31-.17.4-.22ZM314.75,15.44c-.09-.03-.2-.1-.27-.07-.1.04-.17.15-.25.23.09.03.18.05.43.13.02-.05.05-.17.09-.29ZM305.27,8.72c-.14.02-.27.09-.4.14.05.07.1.19.14.18.14,0,.28-.06.44-.1-.09-.11-.14-.23-.18-.22ZM305.84,14.34c.06-.1.15-.19.17-.3.01-.07-.08-.16-.13-.25-.11.06-.21.12-.26.15.13.23.17.31.22.4ZM302.58,11.85c.01-.1-.02-.2-.03-.29-.1.08-.25.16-.28.26-.02.11.07.25.17.52.07-.26.12-.37.14-.49ZM302.56,14.58c-.02-.14-.09-.27-.14-.4-.07.05-.19.1-.18.14,0,.14.06.28.1.44.11-.08.23-.15.22-.18ZM301.26,10.1c.14-.02.27-.08.4-.12-.03-.07-.06-.19-.08-.19-.17.02-.34.06-.62.12.18.12.24.19.3.19ZM300.22,9.26c.04-.14.1-.27.1-.41,0-.07-.11-.15-.17-.22-.05.13-.1.26-.14.37.09.11.15.18.21.26ZM295.31,8.2c.14-.02.27-.08.4-.12-.03-.07-.06-.19-.08-.19-.17.02-.34.06-.62.12.18.12.24.19.3.19ZM288.12,11.08s-.14-.07-.21-.1c-.02.14-.06.28-.05.42,0,.04.13.07.26.13,0-.17.03-.32,0-.46ZM286.33,15.11s-.14-.07-.21-.1c-.02.14-.06.28-.05.42,0,.04.13.07.26.13,0-.17.03-.32,0-.46ZM284.52,10.19c-.09-.04-.18-.14-.25-.12-.13.03-.25.12-.38.19.09.04.17.09.3.15.1-.07.22-.14.33-.22ZM274.65,7.6c.09.1.18.19.27.29.12-.12.24-.24.36-.36-.21.02-.42.05-.63.07ZM275.28,13.43c-.02-.14-.09-.27-.14-.4-.06.05-.19.1-.18.14,0,.14.06.28.1.44.11-.08.23-.14.22-.18ZM273.34,7.27c-.14-.04-.27-.1-.41-.1-.07,0-.15.11-.22.17.13.05.26.1.37.14.11-.09.18-.15.26-.21ZM352.81,9.71c-.14-.04-.27-.1-.41-.1-.07,0-.15.11-.22.17.13.05.26.1.37.14.11-.09.18-.15.26-.21ZM270.71,15.38c-.01-.11-.02-.21-.03-.32-.21.02-.42.05-.63.07.08.47.42.23.67.25ZM300.81,14.62c.03-.07.07-.15.08-.22,0-.03-.07-.06-.11-.09-.03.07-.06.15-.09.22.05.04.09.07.12.1ZM300.89,13.82c-.07-.03-.15-.07-.22-.08-.03,0-.06.07-.09.11.07.03.15.06.22.09.04-.05.07-.09.1-.12ZM300.84,10.47c.09-.12.19-.23.28-.35-.09.12-.19.23-.28.35ZM301.35,9.3s-.09-.1-.11-.09c-.07.02-.13.08-.2.12.04.03.08.06.12.1.06-.04.13-.09.19-.13ZM302.71,12.98s-.09-.1-.11-.09c-.07.02-.13.08-.2.12.04.03.08.06.12.1.06-.04.13-.09.19-.13ZM302.55,11.56c.08-.04.17-.06.23-.12.02-.02-.05-.12-.07-.19-.06.06-.11.11-.17.17,0,.05.01.09.02.14ZM302.61,9.16s-.09-.1-.11-.09c-.07.02-.13.08-.2.12.04.03.08.06.12.1.06-.04.13-.09.19-.13ZM272.34,13.66c-.07.02-.13.08-.2.12.04.03.09.1.11.09.07-.02.13-.08.2-.12-.04-.03-.09-.1-.11-.09ZM237.25,4.37c.08-.04.17-.06.23-.12.02-.02-.05-.12-.07-.19-.06.06-.11.11-.17.17,0,.05.01.09.02.14ZM303.53,11.77c.08-.04.17-.06.23-.12.02-.02-.05-.12-.07-.19-.06.06-.11.11-.17.17,0,.05.01.09.02.14ZM306.29,15.56c.06-.09.12-.19.18-.28-.1.01-.21.02-.32.03.04.08.09.17.13.25ZM306.77,7.9c-.04.05-.08.1-.13.16.07.04.13.09.21.12.01,0,.06-.07.09-.11-.06-.06-.11-.11-.17-.17ZM307.94,11.13s.09.1.11.09c.07-.02.13-.08.2-.12-.04-.03-.08-.06-.12-.1-.06.04-.13.09-.19.13ZM307.9,7.92c-.05-.04-.1-.08-.16-.13-.04.07-.09.13-.12.21,0,.01.07.06.11.09.06-.06.11-.11.17-.17ZM309.83,10.92c.07.03.15.07.22.08.03,0,.06-.07.09-.11-.07-.03-.15-.06-.22-.09-.04.05-.07.09-.1.12ZM310.06,7.75c-.02-.07-.08-.13-.12-.2-.03.04-.1.09-.09.11.02.07.08.13.12.2.03-.04.1-.09.09-.11ZM316.18,7.67s-.09-.1-.11-.09c-.07.02-.13.08-.2.12.04.03.08.06.12.1.06-.04.13-.09.19-.13ZM317.26,8.82s-.09-.1-.11-.09c-.07.02-.13.08-.2.12.04.03.08.06.12.1.06-.04.13-.09.19-.13ZM317.07,7.62c-.02-.07-.08-.13-.12-.2-.03.04-.1.09-.09.11.02.07.08.13.12.2.03-.04.1-.09.09-.11ZM318.45,13.8s-.09-.1-.11-.09c-.07.02-.13.08-.2.12.04.03.08.06.12.1.06-.04.13-.09.19-.13ZM317.88,9.13c-.02-.07-.08-.13-.12-.2-.03.04-.1.09-.09.11.02.07.08.13.12.2.03-.04.1-.09.09-.11ZM317.86,8.42c-.05-.04-.1-.08-.16-.13-.04.07-.09.13-.12.21,0,.01.07.06.11.09.06-.06.11-.11.17-.17ZM317.84,8.28c.08-.04.17-.06.23-.12.02-.02-.05-.12-.07-.19-.06.06-.11.11-.17.17,0,.05.01.09.02.14ZM319.52,14.8c.08-.04.17-.06.23-.12.02-.02-.05-.12-.07-.19-.06.06-.11.11-.17.17,0,.05.01.09.02.14ZM319.75,13.98s.09.1.11.09c.07-.02.13-.08.2-.12-.04-.03-.08-.06-.12-.1-.06.04-.13.09-.19.13ZM321.55,15.86c-.04-.08-.06-.17-.12-.23-.02-.02-.12.05-.19.07.06.06.11.11.17.17.05,0,.09-.01.14-.02ZM280.86,16.18c.03-.07.07-.15.08-.22,0-.03-.07-.06-.11-.09-.03.07-.06.15-.09.22.05.04.09.07.12.1ZM283.2,15.6c-.04-.08-.06-.17-.12-.23-.02-.02-.12.05-.19.07.06.06.11.11.17.17.05,0,.09-.01.14-.02ZM265.57,16c-.07.02-.13.08-.2.12.04.03.09.1.11.09.07-.02.13-.08.2-.12-.04-.03-.09-.1-.11-.09ZM321.69,15.84c-.04.05-.08.1-.13.16.07.04.13.09.21.12.01,0,.06-.07.09-.11-.06-.06-.11-.11-.17-.17ZM322.27,13.7c-.07-.03-.15-.07-.22-.08-.03,0-.06.07-.09.11.07.03.15.06.22.09.04-.05.07-.09.1-.12ZM321.53,7.94c-.07.02-.13.08-.2.12.04.03.09.1.11.09.07-.02.13-.08.2-.12-.04-.03-.09-.1-.11-.09ZM322.38,7.46s-.1.09-.09.11c.02.07.08.13.12.2.03-.04.06-.08.1-.12-.04-.06-.09-.13-.13-.19ZM322.74,6.31c-.07-.03-.15-.07-.22-.08-.03,0-.06.07-.09.11.07.03.15.06.22.09.04-.05.07-.09.1-.12ZM323.38,9.27c-.04-.08-.06-.17-.12-.23-.02-.02-.12.05-.19.07.06.06.11.11.17.17.05,0,.09-.01.14-.02ZM323.15,8.66c.03-.07.07-.15.08-.22,0-.03-.07-.06-.11-.09-.03.07-.06.15-.09.22.05.04.09.07.12.1ZM323.23,6.41c.03-.07.07-.15.08-.22,0-.03-.07-.06-.11-.09-.03.07-.06.15-.09.22.05.04.09.07.12.1ZM324.69,15.35s-.09-.1-.11-.09c-.07.02-.13.08-.2.12.04.03.08.06.12.1.06-.04.13-.09.19-.13ZM326.27,15.16c-.05-.04-.1-.08-.16-.13-.04.07-.09.13-.12.21,0,.01.07.06.11.09.06-.06.11-.11.17-.17ZM326.25,15.02c.08-.04.17-.06.23-.12.02-.02-.05-.12-.07-.19-.06.06-.11.11-.17.17,0,.05.01.09.02.14ZM327.42,9.2c-.07.02-.13.08-.2.12.04.03.09.1.11.09.07-.02.13-.08.2-.12-.04-.03-.09-.1-.11-.09ZM283.34,15.59c-.04.05-.08.1-.13.16.07.04.13.09.21.12.01,0,.06-.07.09-.11-.06-.06-.11-.11-.17-.17ZM283.96,9.45c-.03.07-.07.15-.08.22,0,.03.07.06.11.09.03-.07.06-.15.09-.22-.05-.04-.09-.07-.12-.1ZM285.04,10.61s.1-.09.09-.11c-.02-.07-.08-.13-.12-.2-.03.04-.06.08-.1.12.04.06.09.13.13.19ZM328.52,9.5s.09.1.11.09c.07-.02.13-.08.2-.12-.04-.03-.08-.06-.12-.1-.06.04-.13.09-.19.13ZM285.81,14.68c.03-.07.07-.15.08-.22,0-.03-.07-.06-.11-.09-.03.07-.06.15-.09.22.05.04.09.07.12.1ZM340.44,10.43s.09.1.11.09c.07-.02.13-.08.2-.12-.04-.03-.08-.06-.12-.1-.06.04-.13.09-.19.13ZM341.32,6.82c-.07-.03-.15-.07-.22-.08-.03,0-.06.07-.09.11.07.03.15.06.22.09.04-.05.07-.09.1-.12ZM344.79,6.44c-.07-.03-.15-.07-.22-.08-.03,0-.06.07-.09.11.07.03.15.06.22.09.04-.05.07-.09.1-.12ZM345.45,6.68c.07.03.15.07.22.08.03,0,.06-.07.09-.11-.07-.03-.15-.06-.22-.09-.04.05-.07.09-.1.12ZM285.25,9.63c-.03.07-.07.15-.08.22,0,.03.07.06.11.09.03-.07.06-.15.09-.22-.05-.04-.09-.07-.12-.1ZM346.89,9.56s-.1.09-.09.11c.02.07.08.13.12.2.03-.04.06-.08.1-.12-.04-.06-.09-.13-.13-.19ZM348.85,9.98c.03-.07.07-.15.08-.22,0-.03-.07-.06-.11-.09-.03.07-.06.15-.09.22.05.04.09.07.12.1ZM287.11,13.42s.09.1.11.09c.07-.02.13-.08.2-.12-.04-.03-.08-.06-.12-.1-.06.04-.13.09-.19.13ZM351.28,5.88c-.03.07-.07.15-.08.22,0,.03.07.06.11.09.03-.07.06-.15.09-.22-.05-.04-.09-.07-.12-.1ZM355.06,9.78s.09.1.11.09c.07-.02.13-.08.2-.12-.04-.03-.08-.06-.12-.1-.06.04-.13.09-.19.13ZM288.05,13.3c-.05-.04-.1-.08-.16-.13-.04.07-.09.13-.12.21,0,.01.07.06.11.09.06-.06.11-.11.17-.17ZM289.37,9.49c-.04.05-.08.1-.13.16.07.04.13.09.21.12.01,0,.06-.07.09-.11-.06-.06-.11-.11-.17-.17ZM275.05,9.79s.1-.09.09-.11c-.02-.07-.08-.13-.12-.2-.03.04-.06.08-.1.12.04.06.09.13.13.19ZM275.59,10.37c.08-.04.17-.06.23-.12.02-.02-.05-.12-.07-.19-.06.06-.11.11-.17.17,0,.05.01.09.02.14ZM358.32,6.07c.03-.07.07-.15.08-.22,0-.03-.07-.06-.11-.09-.03.07-.06.15-.09.22.05.04.09.07.12.1ZM88.56,17.36c-.07-.03-.15-.07-.22-.08-.03,0-.06.07-.09.11.07.03.15.06.22.09.04-.05.07-.09.1-.12ZM292.64,15.84c.03-.07.07-.15.08-.22,0-.03-.07-.06-.11-.09-.03.07-.06.15-.09.22.05.04.09.07.12.1ZM275.7,8.98c-.02-.07-.08-.13-.12-.2-.03.04-.1.09-.09.11.02.07.08.13.12.2.03-.04.1-.09.09-.11ZM277.15,15.79c.07.03.15.07.22.08.03,0,.06-.07.09-.11-.07-.03-.15-.06-.22-.09-.04.05-.07.09-.1.12ZM270.68,15.06c.08-.04.17-.06.23-.12.02-.02-.05-.12-.07-.19-.06.06-.11.11-.17.17,0,.05.01.09.02.14ZM295.18,8.36c-.05-.04-.1-.08-.16-.13-.04.07-.09.13-.12.21,0,.01.07.06.11.09.06-.06.11-.11.17-.17ZM275.76,15.36c-.02-.07-.08-.13-.12-.2-.03.04-.1.09-.09.11.02.07.08.13.12.2.03-.04.1-.09.09-.11ZM297.62,16.09c-.07-.03-.15-.07-.22-.08-.03,0-.06.07-.09.11.07.03.15.06.22.09.04-.05.07-.09.1-.12ZM297.36,13.73c-.04-.08-.06-.17-.12-.23-.02-.02-.12.05-.19.07.06.06.11.11.17.17.05,0,.09-.01.14-.02ZM299.33,14.15c.08-.04.17-.06.23-.12.02-.02-.05-.12-.07-.19-.06.06-.11.11-.17.17,0,.05.01.09.02.14ZM255.39,15.47c-.12-.09-.23-.19-.35-.28.12.09.23.19.35.28ZM255.04,15.19c-.04-.08-.06-.17-.12-.23-.02-.02-.12.05-.19.07.06.06.11.11.17.17.05,0,.09-.01.14-.02ZM279.19,11.09c-.07-.03-.15-.07-.22-.08-.03,0-.06.07-.09.11.07.03.15.06.22.09.04-.05.07-.09.1-.12ZM69.84,3.93c.08-.04.17-.06.23-.12.02-.02-.05-.12-.07-.19-.06.06-.11.11-.17.17,0,.05.01.09.02.14ZM58.37,5.83c-.04.05-.08.1-.13.16.07.04.13.09.21.12.01,0,.06-.07.09-.11-.06-.06-.11-.11-.17-.17Z"/>
  </g>
</svg>